<svg width="140" height="116" viewBox="0 0 140 116" fill="none" xmlns="http://www.w3.org/2000/svg">
<path d="M56.1792 44.7132C59.8503 23.8933 79.7877 9.93301 100.608 13.6041C121.428 17.2752 135.388 37.2126 131.717 58.0325C122.829 48.4826 112.362 54.6197 112.362 54.6197C103.671 44.5651 93.948 51.3729 93.948 51.3729C93.948 51.3729 87.0355 41.6319 75.5344 48.1261C75.5344 48.1261 67.7974 38.779 56.1792 44.7132Z" stroke="white" stroke-width="5" stroke-miterlimit="10" stroke-linecap="round" stroke-linejoin="round"/>
<path d="M93.9471 51.3723L85.4796 99.3941C85.0738 101.696 86.6434 103.806 88.8404 104.194C91.1421 104.6 93.2528 103.03 93.6402 100.833L94.1936 97.6944" stroke="white" stroke-width="5" stroke-miterlimit="10" stroke-linecap="round" stroke-linejoin="round"/>
<path d="M24.5597 79.3677H11.0705L9.81459 86.3449H22.1875L21.0711 92.3453H8.79127L7.48886 99.6481H21.2107L20.1408 105.788H0L5.7213 73.2278L25.6296 73.2278L24.5597 79.3677Z" fill="white"/>
<path d="M41.7829 81.8795C45.0699 81.8795 47.5972 83.1664 49.3648 85.7402C51.1633 88.283 51.7835 91.2445 51.2253 94.6245C50.7292 97.9116 49.3027 100.702 46.946 102.997C44.5893 105.292 41.7364 106.439 38.3873 106.439C34.9762 106.439 32.4954 105.137 30.945 102.532L28.7588 115.091H22.7584L28.4797 82.5307H34.4801L34.0614 84.9495C36.1081 82.9028 38.6819 81.8795 41.7829 81.8795ZM45.225 94.2059C45.5661 92.2523 45.2405 90.6708 44.2481 89.4614C43.2868 88.221 41.8759 87.6008 40.0153 87.6008C38.2478 87.6008 36.6663 88.1435 35.2708 89.2288C33.9064 90.3142 32.9916 91.7406 32.5265 93.5082L32.3404 94.671C32.1233 96.5316 32.542 98.0046 33.5963 99.0899C34.6506 100.175 36.0616 100.718 37.8291 100.718C39.6277 100.718 41.2247 100.144 42.6201 98.9969C44.0156 97.8185 44.8839 96.2215 45.225 94.2059Z" fill="white"/>
<path d="M65.131 106.439C61.2858 106.439 58.3864 105.152 56.4328 102.579C54.4792 99.9737 53.8435 96.9192 54.5257 93.4151C55.1769 90.0971 56.7894 87.3527 59.3632 85.182C61.937 82.9804 65.007 81.8795 68.5731 81.8795C72.1703 81.8795 74.9301 83.1819 76.8527 85.7867C78.8063 88.3605 79.4731 91.353 78.8529 94.7641C78.2947 98.0511 76.6977 100.826 74.0619 103.09C71.457 105.323 68.4801 106.439 65.131 106.439ZM65.5497 100.578C67.3172 100.578 68.8987 99.9892 70.2942 98.8108C71.7206 97.6325 72.5889 96.0665 72.899 94.1129C73.2711 92.1903 72.961 90.6553 71.9687 89.5079C70.9764 88.3295 69.5964 87.7404 67.8289 87.7404C66.0923 87.7404 64.5264 88.3295 63.1309 89.5079C61.7665 90.6553 60.8982 92.2058 60.5261 94.1594C60.185 96.113 60.4951 97.679 61.4564 98.8574C62.4487 100.005 63.8131 100.578 65.5497 100.578Z" fill="white"/>
<path d="M110.437 78.6697C109.6 79.383 108.669 79.7396 107.646 79.7396C106.623 79.7396 105.816 79.383 105.227 78.6697C104.638 77.9255 104.421 77.0572 104.576 76.0649C104.731 75.0416 105.227 74.1733 106.064 73.4601C106.902 72.7159 107.832 72.3438 108.855 72.3438C109.879 72.3437 110.685 72.7159 111.274 73.4601C111.894 74.2043 112.127 75.0726 111.972 76.0649C111.786 77.0882 111.274 77.9565 110.437 78.6697ZM100.018 105.788L104.111 82.5305H110.111L106.018 105.788H100.018Z" fill="white"/>
<path d="M120.213 106.439C115.468 106.439 112.321 104.532 110.77 100.718L116.166 98.0198C116.786 100.004 118.305 100.997 120.724 100.997C122.74 100.997 123.872 100.392 124.12 99.1827C124.213 98.5315 123.872 98.0043 123.096 97.6012C122.321 97.1981 121.36 96.826 120.213 96.4849C119.065 96.1437 117.933 95.7406 116.817 95.2755C115.701 94.7793 114.817 93.9731 114.166 92.8567C113.514 91.7404 113.328 90.3604 113.607 88.7169C114.011 86.5462 115.111 84.8717 116.91 83.6933C118.74 82.4839 120.786 81.8793 123.05 81.8793C125.066 81.8793 126.833 82.3134 128.353 83.1817C129.872 84.0499 130.988 85.2593 131.702 86.8098L126.306 89.5077C125.748 87.9572 124.554 87.1819 122.724 87.1819C120.926 87.1819 119.887 87.8486 119.608 89.1821C119.484 89.8953 119.794 90.4535 120.538 90.8566C121.313 91.2597 122.275 91.6163 123.422 91.9264C124.6 92.2365 125.748 92.6241 126.864 93.0893C128.012 93.5234 128.911 94.2987 129.562 95.415C130.213 96.5004 130.384 97.9113 130.074 99.6478C129.671 101.912 128.57 103.617 126.771 104.764C125.004 105.881 122.817 106.439 120.213 106.439Z" fill="white"/>
</svg>
