<svg width="248" height="196" viewBox="0 0 248 196" fill="none" xmlns="http://www.w3.org/2000/svg">
<path d="M163.334 174.553H107.291V183.397H163.334V174.553Z" fill="#98BFFF"/>
<path d="M175.622 190.595V194.04H95.0015V190.595C95.0015 188.899 96.0812 187.407 97.6751 186.842L107.29 183.397H163.334L172.949 186.842C174.594 187.407 175.622 188.899 175.622 190.595Z" fill="#98BFFF"/>
<path d="M163.334 183.345L172.949 186.79C174.543 187.356 175.622 188.898 175.622 190.544V193.989H95.0015" stroke="#76A9FF" stroke-width="3.21661" stroke-miterlimit="10" stroke-linecap="round" stroke-linejoin="round"/>
<path d="M163.334 174.553V183.345H107.291" stroke="#297AFF" stroke-width="3.21661" stroke-miterlimit="10" stroke-linecap="round" stroke-linejoin="round"/>
<path d="M76.5428 24.0576H238.504C242.463 24.0576 245.651 27.2454 245.651 31.2045V167.406C245.651 171.365 242.463 174.553 238.504 174.553H32.119C28.16 174.553 24.9722 171.365 24.9722 167.406V76.5537" stroke="#297AFF" stroke-width="3.21661" stroke-miterlimit="10" stroke-linecap="round" stroke-linejoin="round"/>
<path d="M70.1157 33.261C70.1671 34.1351 70.2185 35.0091 70.2185 35.9346C70.2185 54.7016 55.0507 69.8694 36.2837 69.8694C34.7412 69.8694 33.1987 69.7666 31.6562 69.5609V154.655H238.916V33.261H70.1157ZM228.118 140.875H151.251V109.357H228.118V140.875Z" fill="#98BFFF"/>
<path d="M151.251 99.2797V58.9693C151.251 58.9693 144.721 43.6472 133.409 65.8077C122.098 87.9681 120.041 62.9284 112.689 79.1759C105.336 95.4235 97.9836 89.4078 84.8725 75.2683C71.7613 61.1288 66.0027 92.2871 55.2567 87.0426C44.5106 81.7982 42.6597 95.6806 42.6597 95.6806V99.2797H151.251Z" fill="#76A9FF"/>
<path d="M151.251 99.2797V58.9693C151.251 58.9693 144.721 43.6472 133.409 65.8077C122.098 87.9681 120.041 62.9284 112.689 79.1759C105.336 95.4235 97.9836 89.4078 84.8725 75.2683C71.7613 61.1288 66.0027 92.2871 55.2567 87.0426C44.5106 81.7982 42.6597 95.6806 42.6597 95.6806" stroke="#297AFF" stroke-width="3.21661" stroke-miterlimit="10" stroke-linecap="round" stroke-linejoin="round"/>
<path d="M228.118 46.0125H174.851V99.2798H228.118V46.0125Z" stroke="#297AFF" stroke-width="3.21661" stroke-miterlimit="10" stroke-linecap="round" stroke-linejoin="round"/>
<path d="M182.512 91.5157C182.512 91.5157 184.877 89.3562 194.132 85.6029C203.387 81.8495 204.364 86.3741 209.094 81.4895C213.824 76.5536 221.485 74.0342 221.485 74.0342V91.5157H182.512Z" fill="#76A9FF"/>
<path d="M184.003 53.8276H198.194" stroke="#297AFF" stroke-width="3.21661" stroke-miterlimit="10" stroke-linecap="round" stroke-linejoin="round"/>
<path d="M184.003 58.3008H210.38" stroke="#297AFF" stroke-width="3.21661" stroke-miterlimit="10" stroke-linecap="round" stroke-linejoin="round"/>
<path d="M47.6984 125.142H42.7109V140.876H47.6984V125.142Z" fill="#76A9FF" stroke="#76A9FF" stroke-width="3.21661" stroke-miterlimit="10" stroke-linecap="round" stroke-linejoin="round"/>
<path d="M52.6861 114.396H47.6987V140.875H52.6861V114.396Z" stroke="#76A9FF" stroke-width="3.21661" stroke-miterlimit="10" stroke-linecap="round" stroke-linejoin="round"/>
<path d="M67.7507 118.304H62.7632V140.876H67.7507V118.304Z" fill="#76A9FF" stroke="#76A9FF" stroke-width="3.21661" stroke-miterlimit="10" stroke-linecap="round" stroke-linejoin="round"/>
<path d="M72.7379 126.633H67.7505V140.876H72.7379V126.633Z" stroke="#76A9FF" stroke-width="3.21661" stroke-miterlimit="10" stroke-linecap="round" stroke-linejoin="round"/>
<path d="M87.8029 125.142H82.8154V140.876H87.8029V125.142Z" fill="#76A9FF" stroke="#76A9FF" stroke-width="3.21661" stroke-miterlimit="10" stroke-linecap="round" stroke-linejoin="round"/>
<path d="M92.7902 133.009H87.8027V140.876H92.7902V133.009Z" stroke="#76A9FF" stroke-width="3.21661" stroke-miterlimit="10" stroke-linecap="round" stroke-linejoin="round"/>
<path d="M107.855 118.304H102.868V140.876H107.855V118.304Z" fill="#76A9FF" stroke="#76A9FF" stroke-width="3.21661" stroke-miterlimit="10" stroke-linecap="round" stroke-linejoin="round"/>
<path d="M112.843 126.633H107.855V140.876H112.843V126.633Z" stroke="#76A9FF" stroke-width="3.21661" stroke-miterlimit="10" stroke-linecap="round" stroke-linejoin="round"/>
<path d="M127.907 125.142H122.92V140.876H127.907V125.142Z" fill="#76A9FF" stroke="#76A9FF" stroke-width="3.21661" stroke-miterlimit="10" stroke-linecap="round" stroke-linejoin="round"/>
<path d="M132.895 133.009H127.908V140.876H132.895V133.009Z" stroke="#76A9FF" stroke-width="3.21661" stroke-miterlimit="10" stroke-linecap="round" stroke-linejoin="round"/>
<path d="M159.889 132.649L166.83 122.417L171.149 128.844L175.365 123.445L177.319 125.091C177.319 125.091 180.198 115.836 180.198 116.761C180.198 117.687 189.093 134.089 189.093 134.089L194.081 127.147L197.474 131.981L202.564 116.71L206.215 127.405L212.488 125.399L217.578 131.569" stroke="#297AFF" stroke-width="3.21661" stroke-miterlimit="10" stroke-linecap="round" stroke-linejoin="round"/>
<path d="M42.7104 76.5537V99.2797H157.78" stroke="#297AFF" stroke-width="3.21661" stroke-miterlimit="10" stroke-linecap="round" stroke-linejoin="round"/>
<path d="M135.62 168.075C137.863 168.075 139.682 166.256 139.682 164.013C139.682 161.77 137.863 159.951 135.62 159.951C133.377 159.951 131.558 161.77 131.558 164.013C131.558 166.256 133.377 168.075 135.62 168.075Z" fill="#98BFFF"/>
<path d="M17.7231 32.3872C17.7231 22.1554 26.0526 13.8259 36.2844 13.8259C46.5163 13.8259 54.8457 22.1554 54.8457 32.3872C49.8069 28.5824 45.3337 32.3872 45.3337 32.3872C40.3463 28.3253 36.2844 32.3872 36.2844 32.3872C36.2844 32.3872 32.1711 28.3253 27.2352 32.3872C27.2352 32.3872 22.7619 28.5824 17.7231 32.3872Z" fill="#76A9FF" stroke="#297AFF" stroke-width="3.21661" stroke-miterlimit="10" stroke-linecap="round" stroke-linejoin="round"/>
<path d="M36.2842 32.387V55.9871C36.2842 57.1182 37.2097 57.9923 38.2894 57.9923C39.4206 57.9923 40.2947 57.0668 40.2947 55.9871V54.4446" stroke="#297AFF" stroke-width="3.21661" stroke-miterlimit="10" stroke-linecap="round" stroke-linejoin="round"/>
<path d="M36.2839 69.8695C55.0256 69.8695 70.2187 54.6764 70.2187 35.9348C70.2187 17.1931 55.0256 2 36.2839 2C17.5422 2 2.34912 17.1931 2.34912 35.9348C2.34912 54.6764 17.5422 69.8695 36.2839 69.8695Z" stroke="#76A9FF" stroke-width="3.21661" stroke-miterlimit="10" stroke-linecap="round" stroke-linejoin="round"/>
</svg>
