<svg width="224" height="258" viewBox="0 0 224 258" fill="none" xmlns="http://www.w3.org/2000/svg">
<path d="M9.52235 130.84L11.047 107.644L0.374512 106.936L20.9571 76.2251L19.4325 99.4214L30.105 100.129L9.52235 130.84Z" fill="#98BFFF"/>
<path d="M174.782 28.6345L76.1163 22.2093C67.8942 21.6647 60.761 27.9267 60.271 36.1488L47.4749 233.426C46.9304 241.648 53.1923 248.782 61.4144 249.326L160.08 255.751C168.303 256.296 175.436 250.034 175.926 241.812L176.96 225.531L183.821 119.95L188.722 44.5888C189.266 36.2577 183.004 29.1246 174.782 28.6345ZM182.95 44.0987L170.154 241.376C169.827 246.44 165.471 250.252 160.407 249.925L61.7412 243.5C56.6772 243.173 52.8656 238.817 53.1923 233.753L65.9884 36.4755C66.3151 31.4115 70.6712 27.5999 75.7352 27.9267L174.401 34.3519C179.465 34.6786 183.277 39.0347 182.95 44.0987Z" fill="#76A9FF"/>
<path d="M174.782 28.6345C183.004 29.179 189.266 36.2577 188.722 44.4799L183.821 119.841" stroke="#297AFF" stroke-width="3.40649" stroke-miterlimit="10" stroke-linecap="round" stroke-linejoin="round"/>
<path d="M176.96 225.422L175.926 241.757C175.381 249.979 168.302 256.241 160.08 255.697L61.3599 249.272" stroke="#297AFF" stroke-width="3.40649" stroke-miterlimit="10" stroke-linecap="round" stroke-linejoin="round"/>
<path d="M92.2339 74.1558C93.3229 57.6026 107.589 45.0787 124.088 46.1678C140.641 47.2568 153.165 61.5231 152.076 78.0219C144.344 71.3788 136.775 77.0417 136.775 77.0417C129.152 70.0175 122.128 76.1161 122.128 76.1161C122.128 76.1161 115.975 69.1463 107.48 75.1904C107.535 75.1359 100.783 68.5473 92.2339 74.1558Z" fill="#76A9FF"/>
<path d="M92.2339 74.1558C93.3229 57.6026 107.589 45.0787 124.088 46.1678C140.641 47.2568 153.165 61.5231 152.076 78.0219C144.344 71.3788 136.775 77.0417 136.775 77.0417C129.152 70.0175 122.128 76.1161 122.128 76.1161C122.128 76.1161 115.975 69.1463 107.48 75.1904C107.535 75.1359 100.783 68.5473 92.2339 74.1558Z" stroke="#297AFF" stroke-width="3.40649" stroke-miterlimit="10" stroke-linecap="round" stroke-linejoin="round"/>
<path d="M122.182 76.116L119.895 111.509C119.786 113.306 121.148 114.831 122.945 114.994C124.741 115.103 126.266 113.742 126.429 111.945L126.593 109.495" stroke="#297AFF" stroke-width="3.40649" stroke-miterlimit="10" stroke-linecap="round" stroke-linejoin="round"/>
<path d="M94.9565 239.361L128.009 241.539" stroke="#76A9FF" stroke-width="3.40649" stroke-miterlimit="10" stroke-linecap="round" stroke-linejoin="round"/>
<path d="M48.9451 16.0018L42.792 11.1011" stroke="#76A9FF" stroke-width="3.40649" stroke-miterlimit="10" stroke-linecap="round" stroke-linejoin="round"/>
<path d="M62.6122 10.0667L61.7954 2.28003" stroke="#76A9FF" stroke-width="3.40649" stroke-miterlimit="10" stroke-linecap="round" stroke-linejoin="round"/>
<path d="M45.7327 32.5549L37.8916 32.9365" stroke="#76A9FF" stroke-width="3.40649" stroke-miterlimit="10" stroke-linecap="round" stroke-linejoin="round"/>
<path d="M208.433 135.686C208.27 132.038 205.166 129.206 201.518 129.37L86.7342 134.542C83.086 134.706 80.2545 137.809 80.4179 141.458L83.4671 209.141C83.6305 212.789 86.7342 215.621 90.3825 215.457L205.166 210.284C208.814 210.121 211.646 207.017 211.482 203.369L208.433 135.686ZM106.064 149.789C108.569 149.68 110.693 151.64 110.856 154.145C110.965 156.65 109.005 158.773 106.5 158.937C103.995 159.046 101.872 157.085 101.708 154.581C101.599 152.021 103.56 149.898 106.064 149.789ZM106.99 169.609C109.495 169.5 111.619 171.46 111.782 173.965C111.891 176.47 109.931 178.594 107.426 178.757C104.921 178.866 102.797 176.906 102.634 174.401C102.525 171.896 104.485 169.772 106.99 169.609ZM108.297 198.577C105.792 198.686 103.669 196.726 103.505 194.221C103.342 191.716 105.357 189.593 107.861 189.484C110.366 189.375 112.49 191.335 112.653 193.84C112.762 196.345 110.802 198.468 108.297 198.577Z" fill="#76A9FF"/>
<path d="M208.433 135.686L211.483 203.369C211.646 207.017 208.815 210.121 205.166 210.284L90.3828 215.457" stroke="#297AFF" stroke-width="3.40649" stroke-miterlimit="10" stroke-linecap="round" stroke-linejoin="round"/>
<path d="M106.283 158.937C108.809 158.937 110.857 156.889 110.857 154.363C110.857 151.837 108.809 149.789 106.283 149.789C103.757 149.789 101.709 151.837 101.709 154.363C101.709 156.889 103.757 158.937 106.283 158.937Z" stroke="#297AFF" stroke-width="3.40649" stroke-miterlimit="10" stroke-linecap="round" stroke-linejoin="round"/>
<path d="M121.039 150.224L188.232 147.175" stroke="#297AFF" stroke-width="3.40649" stroke-miterlimit="10" stroke-linecap="round" stroke-linejoin="round"/>
<path d="M121.365 158.229L176.361 155.779" stroke="#297AFF" stroke-width="3.40649" stroke-miterlimit="10" stroke-linecap="round" stroke-linejoin="round"/>
<path d="M107.208 178.757C109.734 178.757 111.782 176.709 111.782 174.183C111.782 171.657 109.734 169.609 107.208 169.609C104.682 169.609 102.634 171.657 102.634 174.183C102.634 176.709 104.682 178.757 107.208 178.757Z" stroke="#297AFF" stroke-width="3.40649" stroke-miterlimit="10" stroke-linecap="round" stroke-linejoin="round"/>
<path d="M121.91 170.045L189.157 167.05" stroke="#297AFF" stroke-width="3.40649" stroke-miterlimit="10" stroke-linecap="round" stroke-linejoin="round"/>
<path d="M122.291 178.103L177.232 175.599" stroke="#297AFF" stroke-width="3.40649" stroke-miterlimit="10" stroke-linecap="round" stroke-linejoin="round"/>
<path d="M108.079 198.577C110.606 198.577 112.653 196.53 112.653 194.003C112.653 191.477 110.606 189.429 108.079 189.429C105.553 189.429 103.505 191.477 103.505 194.003C103.505 196.53 105.553 198.577 108.079 198.577Z" stroke="#297AFF" stroke-width="3.40649" stroke-miterlimit="10" stroke-linecap="round" stroke-linejoin="round"/>
<path d="M122.835 189.919L190.028 186.87" stroke="#297AFF" stroke-width="3.40649" stroke-miterlimit="10" stroke-linecap="round" stroke-linejoin="round"/>
<path d="M123.162 197.924L178.158 195.419" stroke="#297AFF" stroke-width="3.40649" stroke-miterlimit="10" stroke-linecap="round" stroke-linejoin="round"/>
<path d="M21.9373 188.722L23.0807 171.678L15.2397 171.188L30.3772 148.591L29.2338 165.634L37.0748 166.179L21.9373 188.722Z" fill="#76A9FF"/>
<path d="M208.706 112.109L209.795 95.2832L202.062 94.7931L216.982 72.5225L215.893 89.348L223.625 89.838L208.706 112.109Z" fill="#76A9FF"/>
</svg>
