<svg width="216" height="256" viewBox="0 0 216 256" fill="none" xmlns="http://www.w3.org/2000/svg">
<path d="M90.8495 60.8898C90.8495 60.8898 96.6359 60.5653 99.6643 52.6158C102.693 44.6662 101.773 36.6626 99.2317 32.5526C96.69 28.4426 94.3646 23.5215 84.9008 24.549C75.4371 25.5224 71.273 20.2768 58.9972 20.4931C46.7213 20.7094 41.3135 23.4133 38.934 31.1466C36.5546 38.8798 36.9331 40.6644 33.3639 41.8001C29.7947 42.9357 24.9817 45.8019 27.902 52.6158C30.8222 59.3756 25.2521 62.404 22.1156 64.9457C18.979 67.4333 11.1917 73.1115 10.3264 81.9264C9.46119 90.6871 13.7875 95.0675 18.4923 96.9061C18.4923 96.9061 30.9304 86.0904 41.2053 84.4681L46.505 70.1372C46.505 70.1372 43.3144 68.7312 43.0981 66.0273C42.9358 63.3233 45.802 60.8357 47.6948 61.4306C49.5875 62.0254 50.0201 62.404 50.0201 62.404C50.0201 62.404 54.1301 52.9943 55.2117 52.6699C56.2392 52.3454 63.702 56.3472 73.6525 49.0466C83.603 41.746 85.2794 44.2336 85.2794 44.2336C85.2794 44.2336 87.2262 44.6662 87.1181 45.6396C87.0099 46.613 88.3078 51.2638 90.7954 52.6699L90.8495 60.8898Z" fill="#76A9FF"/>
<path d="M105.721 146.766C105.721 146.766 94.6352 149.254 93.3914 148.875C92.1476 148.497 91.3364 149.146 92.3639 142.386C93.3914 135.626 99.7186 103.936 100.422 103.449C101.125 102.963 103.396 102.476 103.396 102.476L108.912 101.827C108.912 101.827 105.343 95.554 100.043 91.8767C94.7434 88.1993 87.8754 87.7126 87.8754 87.7126L87.1183 92.796C87.1183 92.796 87.9295 96.6897 87.2805 101.827C86.6316 106.965 84.9551 108.208 82.7379 107.397C80.5207 106.586 77.4923 104.315 77.4923 104.315C77.4923 104.315 75.4914 111.453 72.1926 111.453C68.8938 111.399 64.6757 111.399 56.8883 99.7181C56.8883 99.7181 48.1817 95.1214 40.5566 86.2525L41.0974 84.4138C41.0974 84.4138 22.7647 89.2268 14.4366 101.773C6.16262 114.319 1.24147 133.03 2.70159 145.09C4.21579 157.15 17.8436 161.854 17.8436 161.854C17.8436 161.854 15.3019 170.885 13.4092 175.428C11.4623 179.971 9.5155 185.162 10.7052 189.597C10.7052 189.597 9.62364 194.626 47.3705 201.386C47.3705 201.386 72.5171 204.036 87.0642 203.17C101.611 202.305 109.669 199.385 109.669 199.385C109.669 199.385 110.967 168.776 105.721 146.766ZM90.4171 124.702C90.4171 124.702 90.363 128.055 89.2814 128.921C88.1998 129.786 87.6591 129.083 87.6591 129.083C87.6591 129.083 85.6582 133.085 83.495 134.058C81.386 135.031 77.1137 134.977 75.7077 130.164C74.3016 125.351 76.1944 119.998 76.1944 119.998C76.1944 119.998 81.3319 116.482 82.3594 115.671C83.3869 114.86 85.0633 113.4 85.8204 111.778C86.6316 110.155 89.0651 107.343 90.7956 107.397C92.5261 107.451 94.0403 110.966 94.0944 113.292C94.1485 115.617 92.3639 113.833 91.715 113.67C91.1201 113.562 90.9038 114.427 90.9038 114.427C90.9038 114.427 93.1751 115.888 93.4996 117.834C93.77 119.727 92.7965 121.187 91.715 120.863C91.715 120.863 92.0394 121.998 92.0394 123.026C92.0394 123.999 91.1742 125.568 90.4171 124.702Z" fill="#98BFFF"/>
<path d="M90.7417 52.6155C90.7417 52.6155 90.5254 64.1342 91.4988 69.3258C92.4722 74.5173 92.4722 73.5439 88.4163 75.653C88.4163 75.653 88.2 87.7666 87.2807 91.8224C86.3073 95.8783 79.9801 103.72 77.4924 104.315C75.0048 104.909 56.564 105.45 40.6108 86.2523C40.6108 86.2523 45.5861 72.0297 46.3973 69.9206C46.3973 69.9206 45.6942 69.8125 44.3963 68.6227C42.8821 67.2708 42.125 64.0801 44.9912 61.8629C47.1544 60.2406 50.6695 62.0252 51.2102 63.972" stroke="#297AFF" stroke-width="3.38306" stroke-miterlimit="10" stroke-linecap="round" stroke-linejoin="round"/>
<path d="M46.2349 65.2158C46.2349 65.2158 48.0735 65.2158 48.3439 67.5411" stroke="#297AFF" stroke-width="3.38306" stroke-miterlimit="10" stroke-linecap="round" stroke-linejoin="round"/>
<path d="M49.9663 62.3495C49.9663 62.3495 53.5896 52.9398 55.1578 52.6153C56.672 52.2909 62.837 56.4008 72.1926 49.9655C81.5482 43.5842 83.2246 42.3945 85.4959 44.5576" stroke="#297AFF" stroke-width="3.38306" stroke-miterlimit="10" stroke-linecap="round" stroke-linejoin="round"/>
<path d="M90.8496 60.89C90.8496 60.89 98.2043 60.241 100.746 49.0468C103.288 37.8525 98.0421 22.7105 86.253 24.3869C74.4638 26.0634 69.4886 18.9791 52.8324 20.8178C36.1762 22.6564 38.8801 38.2311 35.2569 40.7187C31.6877 43.2604 24.1167 44.342 28.0644 53.2108C32.0121 62.0797 20.0067 63.4858 13.5713 73.3281C9.83992 79.1145 9.02875 85.658 11.3 90.471" stroke="#297AFF" stroke-width="3.38306" stroke-miterlimit="10" stroke-linecap="round" stroke-linejoin="round"/>
<path d="M41.2596 84.4138C41.2596 84.4138 32.7151 85.4954 20.4393 95.0673C8.16345 104.639 -4.76134 143.089 7.19003 155.04C21.629 169.479 47.4786 164.829 60.6197 156.014C75.0587 146.334 77.33 140.656 77.33 140.656" stroke="#297AFF" stroke-width="3.38306" stroke-miterlimit="10" stroke-linecap="round" stroke-linejoin="round"/>
<path d="M31.4175 131.841C31.4175 131.841 55.5365 116.861 67.8124 115.725C75.816 114.968 77.3302 119.24 77.3302 119.24" stroke="#297AFF" stroke-width="3.38306" stroke-miterlimit="10" stroke-linecap="round" stroke-linejoin="round"/>
<path d="M105.721 146.766C105.721 146.766 111.508 177.104 109.777 199.439C109.777 199.439 99.3939 204.847 65.5948 203.116C31.7957 201.386 16.5996 193.49 16.5996 193.49" stroke="#297AFF" stroke-width="3.38306" stroke-miterlimit="10" stroke-linecap="round" stroke-linejoin="round"/>
<path d="M56.8345 99.6639C56.8345 99.6639 62.0801 109.56 69.6511 111.615C74.6263 112.967 77.5466 104.315 77.5466 104.315C77.5466 104.315 81.4402 108.262 84.5227 107.235C87.6052 106.207 88.0919 97.9875 87.3348 91.8225" stroke="#297AFF" stroke-width="3.38306" stroke-miterlimit="10" stroke-linecap="round" stroke-linejoin="round"/>
<path d="M72.9496 82.8994C72.9496 82.8994 67.3255 82.7912 64.6216 77.0049" stroke="#297AFF" stroke-width="3.38306" stroke-miterlimit="10" stroke-linecap="round" stroke-linejoin="round"/>
<path d="M72.1927 55.3734C72.1927 55.3734 69.7051 54.2377 66.8931 56.4009" stroke="#297AFF" stroke-width="3.38306" stroke-miterlimit="10" stroke-linecap="round" stroke-linejoin="round"/>
<path d="M81.9268 56.401C81.9268 56.401 83.9276 56.1847 85.4959 58.456" stroke="#297AFF" stroke-width="3.38306" stroke-miterlimit="10" stroke-linecap="round" stroke-linejoin="round"/>
<path d="M67.9741 65.973C67.92 66.3516 67.92 66.6761 67.866 67.0546C68.6771 66.5679 69.4883 66.1353 70.2995 65.6486C70.2995 65.6486 70.2995 65.6486 70.2454 65.6486C70.3536 65.7567 70.4617 65.8108 70.5698 65.919L70.5158 65.8649C70.6239 65.973 70.678 66.0812 70.7862 66.1894L70.7321 66.1353C70.7862 66.2434 70.8402 66.4057 70.8943 66.5138C70.8943 66.4597 70.8943 66.4597 70.8943 66.4057C70.8943 66.5679 70.9484 66.6761 70.9484 66.8383C70.9484 66.7842 70.9484 66.7842 70.9484 66.7301C70.9484 66.8924 70.8943 67.0005 70.8943 67.1628C70.8943 67.1087 70.8943 67.1087 70.8943 67.0546C70.8402 67.1628 70.7862 67.325 70.7321 67.4331C70.7321 67.3791 70.7862 67.3791 70.7862 67.3791C70.678 67.4872 70.6239 67.5954 70.5158 67.7035L70.5698 67.6495C70.4617 67.7576 70.3536 67.8117 70.2454 67.9198C70.2454 67.9198 70.2995 67.9198 70.2995 67.8658C70.1913 67.9198 70.0291 67.9739 69.9209 68.028C70.1372 67.9739 70.2995 67.8658 70.4617 67.7576C70.6239 67.6495 70.7862 67.4872 70.8943 67.325C71.0025 67.1628 71.0565 66.9465 71.1106 66.7301C71.1647 66.5138 71.1647 66.2975 71.0566 66.0812C71.0025 65.973 70.9484 65.8108 70.8943 65.7026C70.7321 65.4323 70.5698 65.27 70.2995 65.1078C70.1913 65.0537 70.0291 64.9996 69.9209 64.9456C69.6505 64.8915 69.3261 64.8915 69.0557 64.9456C68.9475 64.9996 68.7853 65.0537 68.6771 65.1078C68.623 65.1619 68.4067 65.3241 68.3527 65.3782C68.3527 65.3782 68.3527 65.3782 68.2986 65.4323C68.2445 65.5404 68.0823 65.6486 68.0282 65.7567V65.8108C67.9741 65.8649 67.9741 65.973 67.92 66.0271C67.92 66.0812 67.866 66.1894 67.8119 66.2434V66.2975C67.8119 66.4597 67.7578 66.622 67.7578 66.7301C67.7578 67.1087 67.866 67.3791 68.0282 67.7035V67.7576C68.0823 67.8658 68.1904 68.028 68.2986 68.0821C68.2986 68.0821 68.2986 68.0821 68.3527 68.1362C68.4067 68.1902 68.4608 68.2443 68.5149 68.2443C68.569 68.2984 68.623 68.3525 68.6771 68.3525C69.1638 68.6229 69.8128 68.6229 70.2995 68.3525C70.5698 68.1902 70.7321 68.028 70.8943 67.7576C71.0566 67.4872 71.1106 67.2168 71.1106 66.9465C71.1647 66.5679 71.1647 66.2434 71.2188 65.8649C71.2188 65.6486 71.1647 65.4323 71.0566 65.216C71.0025 64.9996 70.8943 64.8374 70.7321 64.6752C70.5699 64.5129 70.4076 64.4048 70.1913 64.3507C69.975 64.2425 69.8128 64.1885 69.5424 64.1885C69.3801 64.1885 69.272 64.2426 69.1098 64.2426C68.8394 64.2966 68.623 64.4589 68.4067 64.6752C68.2986 64.7833 68.2445 64.8915 68.1363 64.9996C68.0823 65.4323 67.9741 65.7026 67.9741 65.973Z" fill="#297AFF"/>
<path d="M78.9521 66.7841C78.8981 67.1626 78.8981 67.4871 78.844 67.8656C79.6552 67.3789 80.4663 66.9463 81.2775 66.4596C81.2775 66.4596 81.2775 66.4596 81.2234 66.4596C81.3316 66.5678 81.4398 66.6219 81.5479 66.73L81.4938 66.6759C81.602 66.7841 81.6561 66.8922 81.7642 67.0004L81.7101 66.9463C81.7642 67.0545 81.8183 67.2167 81.8724 67.3249C81.8724 67.2708 81.8724 67.2708 81.8724 67.2167C81.8724 67.3789 81.9265 67.4871 81.9265 67.6493C81.9265 67.5953 81.9265 67.5953 81.9265 67.5412C81.9265 67.7034 81.8724 67.8116 81.8724 67.9738C81.8724 67.9197 81.8724 67.9197 81.8724 67.8656C81.8183 67.9738 81.7642 68.136 81.7101 68.2442C81.7101 68.1901 81.7642 68.1901 81.7642 68.1901C81.6561 68.2983 81.602 68.4064 81.4938 68.5146L81.5479 68.4605C81.4398 68.5687 81.3316 68.6227 81.2234 68.7309C81.2234 68.7309 81.2775 68.7309 81.2775 68.6768C81.1694 68.7309 81.0071 68.785 80.899 68.8391C81.1153 68.785 81.2775 68.6768 81.4398 68.5687C81.602 68.4605 81.7642 68.2983 81.8724 68.136C81.9805 67.9738 82.0346 67.7575 82.0887 67.5412C82.1428 67.3249 82.1428 67.1086 82.0346 66.8922C81.9805 66.7841 81.9265 66.6218 81.8724 66.5137C81.7102 66.2433 81.5479 66.0811 81.2775 65.9188C81.1694 65.8648 81.0071 65.8107 80.899 65.7566C80.6286 65.7025 80.3041 65.7025 80.0337 65.7566C79.9256 65.8107 79.7633 65.8648 79.6552 65.9188C79.6011 65.9729 79.3848 66.1352 79.3307 66.1892C79.3307 66.1892 79.3307 66.1892 79.2766 66.2433C79.2225 66.3515 79.0603 66.4596 79.0062 66.5678V66.6219C78.9522 66.6759 78.9522 66.7841 78.8981 66.8382C78.8981 66.8922 78.844 67.0004 78.7899 67.0545V67.1086C78.7899 67.2708 78.7358 67.433 78.7358 67.5412C78.7358 67.9197 78.844 68.1901 79.0062 68.5146V68.5687C79.0603 68.6768 79.1685 68.8391 79.2766 68.8931C79.2766 68.8931 79.2766 68.8931 79.3307 68.9472C79.3848 69.0013 79.4389 69.0554 79.4929 69.0554C79.547 69.1094 79.6011 69.1635 79.6552 69.1635C80.1419 69.4339 80.7908 69.4339 81.2775 69.1635C81.5479 69.0013 81.7102 68.8391 81.8724 68.5687C82.0346 68.2983 82.0887 68.0279 82.0887 67.7575C82.1428 67.3789 82.1428 67.0545 82.1968 66.6759C82.1968 66.4596 82.1428 66.2433 82.0346 66.027C81.9805 65.8107 81.8724 65.6484 81.7101 65.4862C81.5479 65.324 81.3857 65.2158 81.1694 65.1617C80.953 65.0536 80.7908 64.9995 80.5204 64.9995C80.3582 64.9995 80.25 65.0536 80.0878 65.0536C79.8174 65.1077 79.6011 65.2699 79.3848 65.4862C79.2766 65.5944 79.2226 65.7025 79.1144 65.8107C79.0603 66.2433 78.9521 66.5137 78.9521 66.7841Z" fill="#297AFF"/>
<path d="M128.326 113.724C128.326 113.724 132.274 116.536 132.328 121.944C132.382 127.352 128.488 135.789 122.918 135.248" stroke="#297AFF" stroke-width="3.38306" stroke-miterlimit="10" stroke-linecap="round" stroke-linejoin="round"/>
<path d="M128.434 117.131C128.434 117.131 124.378 115.617 121.242 117.131" stroke="#297AFF" stroke-width="3.38306" stroke-miterlimit="10" stroke-linecap="round" stroke-linejoin="round"/>
<path d="M124.811 122.16C124.811 122.16 121.404 122.755 119.782 125.135" stroke="#297AFF" stroke-width="3.38306" stroke-miterlimit="10" stroke-linecap="round" stroke-linejoin="round"/>
<path d="M123.621 127.244C123.351 127.46 120.917 128.704 119.782 130.921" stroke="#297AFF" stroke-width="3.38306" stroke-miterlimit="10" stroke-linecap="round" stroke-linejoin="round"/>
<path d="M123.621 132.273C123.621 132.273 121.999 133.409 121.674 134.869" stroke="#297AFF" stroke-width="3.38306" stroke-miterlimit="10" stroke-linecap="round" stroke-linejoin="round"/>
<path d="M127.569 116.861C129.083 110.534 130.435 104.909 130.976 102.097C131.084 101.448 130.651 100.854 130.002 100.799C126.65 100.475 116.266 99.8801 101.665 102.746C100.746 102.908 99.9888 103.666 99.7725 104.585C98.4205 110.047 93.8779 129.245 91.7148 147.253C91.6066 148.226 92.4178 148.983 93.3912 148.821C98.4746 147.956 112.643 145.631 119.619 144.982C120.214 144.928 120.755 144.495 120.917 143.9C121.296 142.332 122.053 139.357 123.08 135.193" stroke="#297AFF" stroke-width="3.38306" stroke-miterlimit="10" stroke-linecap="round" stroke-linejoin="round"/>
<path d="M123.621 101.016C123.621 101.016 124.54 97.9871 124.27 97.3382C124.054 96.6893 112.86 96.7974 110.859 97.5545C110.156 97.8249 109.453 102.367 109.453 102.367" stroke="#297AFF" stroke-width="3.38306" stroke-miterlimit="10" stroke-linecap="round" stroke-linejoin="round"/>
<path d="M76.1401 120.051C76.1401 120.051 83.0621 115.184 83.9814 114.427C84.9008 113.67 87.172 108.532 90.1463 107.505C93.0665 106.477 94.094 111.723 94.094 111.723" stroke="#297AFF" stroke-width="3.38306" stroke-miterlimit="10" stroke-linecap="round" stroke-linejoin="round"/>
<path d="M89.9302 113.886C89.9302 113.886 94.1482 115.401 93.3912 119.673" stroke="#297AFF" stroke-width="3.38306" stroke-miterlimit="10" stroke-linecap="round" stroke-linejoin="round"/>
<path d="M88.7407 118.699C88.7407 118.699 92.0395 119.673 92.0395 122.972" stroke="#297AFF" stroke-width="3.38306" stroke-miterlimit="10" stroke-linecap="round" stroke-linejoin="round"/>
<path d="M87.6048 121.674C87.6048 121.674 90.4169 122.539 90.3628 125.135C90.3628 127.73 89.1731 130.326 87.6048 129.082C87.6048 129.082 84.1979 136.761 79.0064 134.166C73.815 131.57 74.7343 122.16 76.1403 120.051" stroke="#297AFF" stroke-width="3.38306" stroke-miterlimit="10" stroke-linecap="round" stroke-linejoin="round"/>
<path d="M72.1925 161.908C72.1925 161.908 66.298 170.236 56.7803 171.21" stroke="#76A9FF" stroke-width="3.38306" stroke-miterlimit="10" stroke-linecap="round" stroke-linejoin="round"/>
<path d="M70.5698 175.104C70.5698 175.104 68.8393 176.131 65.7568 175.752" stroke="#76A9FF" stroke-width="3.38306" stroke-miterlimit="10" stroke-linecap="round" stroke-linejoin="round"/>
<path d="M108.263 200.034C108.263 200.034 110.102 217.177 103.775 253.842" stroke="#297AFF" stroke-width="3.38306" stroke-miterlimit="10" stroke-linecap="round" stroke-linejoin="round"/>
<path d="M10.3807 191.922C10.3807 191.922 0.268014 221.881 13.1387 243.242L6.59521 253.842" stroke="#297AFF" stroke-width="3.38306" stroke-miterlimit="10" stroke-linecap="round" stroke-linejoin="round"/>
<path d="M87.1724 229.615C87.1724 229.615 83.6033 236.266 75.6538 241.674" stroke="#98BFFF" stroke-width="3.38306" stroke-miterlimit="10" stroke-linecap="round" stroke-linejoin="round"/>
<path d="M172.237 116.59C172.237 116.59 175.536 123.08 178.024 122.322C180.511 121.619 187.001 111.074 187.001 111.074" fill="#BBD4FF"/>
<path d="M162.828 96.5813C162.828 96.5813 164.937 100.854 170.561 101.016C176.185 101.232 179.755 97.1762 179.755 97.1762C179.755 97.1762 182.458 101.719 187.65 101.881C192.842 102.097 196.519 98.7985 196.519 98.7985C196.519 98.7985 198.736 132.976 177.483 138.492C177.483 138.492 157.204 134.058 162.828 96.5813Z" fill="#DDEAFF"/>
<path d="M172.237 116.59C172.237 116.59 175.536 123.08 178.024 122.322C180.511 121.619 187.001 111.074 187.001 111.074" stroke="#98BFFF" stroke-width="3.38306" stroke-miterlimit="10" stroke-linecap="round" stroke-linejoin="round"/>
<path d="M162.828 96.5813C162.828 96.5813 164.937 100.854 170.561 101.016C176.185 101.232 179.755 97.1762 179.755 97.1762C179.755 97.1762 182.458 101.719 187.65 101.881C192.842 102.097 196.519 98.7985 196.519 98.7985C196.519 98.7985 198.736 132.976 177.483 138.492C177.483 138.492 157.204 134.058 162.828 96.5813Z" stroke="#98BFFF" stroke-width="3.38306" stroke-miterlimit="10" stroke-linecap="round" stroke-linejoin="round"/>
<path d="M168.83 177.591L128.38 181.106L125.838 151.579L143.954 150.011L142.981 138.492L165.964 144.982L168.83 177.591Z" stroke="#98BFFF" stroke-width="3.38306" stroke-miterlimit="10" stroke-linecap="round" stroke-linejoin="round"/>
<path d="M139.361 161.91L132.573 162.501L134.153 180.656L140.941 180.065L139.361 161.91Z" stroke="#98BFFF" stroke-width="3.38306" stroke-miterlimit="10" stroke-linecap="round" stroke-linejoin="round"/>
<path d="M161.455 159.98L142.653 161.617L144.233 179.772L163.035 178.136L161.455 159.98Z" stroke="#98BFFF" stroke-width="3.38306" stroke-miterlimit="10" stroke-linecap="round" stroke-linejoin="round"/>
<path d="M132.923 28.0101C134.745 28.0101 136.222 26.5332 136.222 24.7114C136.222 22.8895 134.745 21.4126 132.923 21.4126C131.101 21.4126 129.624 22.8895 129.624 24.7114C129.624 26.5332 131.101 28.0101 132.923 28.0101Z" fill="#98BFFF"/>
<path d="M132.923 44.9361C134.745 44.9361 136.222 43.4592 136.222 41.6374C136.222 39.8155 134.745 38.3386 132.923 38.3386C131.101 38.3386 129.624 39.8155 129.624 41.6374C129.624 43.4592 131.101 44.9361 132.923 44.9361Z" fill="#98BFFF"/>
<path d="M132.923 61.8629C134.745 61.8629 136.222 60.386 136.222 58.5641C136.222 56.7423 134.745 55.2654 132.923 55.2654C131.101 55.2654 129.624 56.7423 129.624 58.5641C129.624 60.386 131.101 61.8629 132.923 61.8629Z" fill="#98BFFF"/>
<path d="M115.78 80.8985C115.78 80.8985 111.183 43.3139 113.13 22.2773C114.698 5.08034 126.001 3.56614 159.908 2.37641C193.815 1.18668 208.741 4.70179 211.661 13.4625C214.581 22.2233 215.176 66.6758 206.416 75.4366C197.655 84.1973 134.599 78.2487 129.732 77.5997C124.865 76.9508 117.024 87.1716 115.78 80.8985Z" stroke="#98BFFF" stroke-width="3.38306" stroke-miterlimit="10" stroke-linecap="round" stroke-linejoin="round"/>
<path d="M144.442 21.0879C144.442 21.0879 173.536 19.6278 196.574 21.0879" stroke="#297AFF" stroke-width="3.38306" stroke-miterlimit="10" stroke-linecap="round" stroke-linejoin="round"/>
<path d="M144.442 26.8741C144.442 26.8741 156.123 26.2792 170.508 26.2251" stroke="#98BFFF" stroke-width="3.38306" stroke-miterlimit="10" stroke-linecap="round" stroke-linejoin="round"/>
<path d="M132.923 28.0101C134.745 28.0101 136.222 26.5332 136.222 24.7114C136.222 22.8895 134.745 21.4126 132.923 21.4126C131.101 21.4126 129.624 22.8895 129.624 24.7114C129.624 26.5332 131.101 28.0101 132.923 28.0101Z" stroke="#297AFF" stroke-width="3.38306" stroke-miterlimit="10" stroke-linecap="round" stroke-linejoin="round"/>
<path d="M144.442 38.0144C144.442 38.0144 173.536 36.5543 196.574 38.0144" stroke="#297AFF" stroke-width="3.38306" stroke-miterlimit="10" stroke-linecap="round" stroke-linejoin="round"/>
<path d="M144.442 43.8008C144.442 43.8008 156.123 43.2059 170.508 43.1519" stroke="#297AFF" stroke-width="3.38306" stroke-miterlimit="10" stroke-linecap="round" stroke-linejoin="round"/>
<path d="M132.923 44.9361C134.745 44.9361 136.222 43.4592 136.222 41.6374C136.222 39.8155 134.745 38.3386 132.923 38.3386C131.101 38.3386 129.624 39.8155 129.624 41.6374C129.624 43.4592 131.101 44.9361 132.923 44.9361Z" stroke="#297AFF" stroke-width="3.38306" stroke-miterlimit="10" stroke-linecap="round" stroke-linejoin="round"/>
<path d="M144.442 54.9407C144.442 54.9407 173.536 53.4806 196.574 54.9407" stroke="#98BFFF" stroke-width="3.38306" stroke-miterlimit="10" stroke-linecap="round" stroke-linejoin="round"/>
<path d="M144.442 60.6731C144.442 60.6731 156.123 60.0782 170.508 60.0242" stroke="#297AFF" stroke-width="3.38306" stroke-miterlimit="10" stroke-linecap="round" stroke-linejoin="round"/>
<path d="M132.923 61.8629C134.745 61.8629 136.222 60.386 136.222 58.5641C136.222 56.7423 134.745 55.2654 132.923 55.2654C131.101 55.2654 129.624 56.7423 129.624 58.5641C129.624 60.386 131.101 61.8629 132.923 61.8629Z" stroke="#297AFF" stroke-width="3.38306" stroke-miterlimit="10" stroke-linecap="round" stroke-linejoin="round"/>
<path d="M36.0682 129.083C36.0682 129.083 34.0132 126.812 31.4175 126.379" stroke="#297AFF" stroke-width="3.38306" stroke-miterlimit="10" stroke-linecap="round" stroke-linejoin="round"/>
<path d="M29.4169 25.7929L25.9019 22.2778" stroke="#98BFFF" stroke-width="3.38306" stroke-miterlimit="10" stroke-linecap="round" stroke-linejoin="round"/>
<path d="M38.8799 19.3034L38.6636 16.2747" stroke="#98BFFF" stroke-width="3.38306" stroke-miterlimit="10" stroke-linecap="round" stroke-linejoin="round"/>
<path d="M26.3882 34.6074L23.6299 34.1206" stroke="#98BFFF" stroke-width="3.38306" stroke-miterlimit="10" stroke-linecap="round" stroke-linejoin="round"/>
</svg>
