<svg width="172" height="169" viewBox="0 0 172 169" fill="none" xmlns="http://www.w3.org/2000/svg">
<rect x="0.5" y="29" width="140" height="140" rx="70" fill="#E6E9EB"/>
<rect x="27.2549" y="54.5111" width="86.4889" height="88.9818" rx="2.48889" fill="white"/>
<path d="M35.5153 67.4859C35.5153 67.718 35.486 67.929 35.4273 68.1191C35.3686 68.3065 35.2805 68.4686 35.1631 68.6056C35.0485 68.7426 34.9045 68.8474 34.7312 68.9201C34.5606 68.9928 34.3622 69.0291 34.1357 69.0291C33.9009 69.0291 33.6968 68.9928 33.5235 68.9201C33.3501 68.8446 33.2062 68.7398 33.0916 68.6056C32.9769 68.4686 32.8917 68.3051 32.8358 68.115C32.7798 67.9249 32.7519 67.7138 32.7519 67.4818C32.7519 67.1742 32.8022 66.9059 32.9029 66.6766C33.0035 66.4474 33.1559 66.2685 33.3599 66.1399C33.5668 66.0113 33.8268 65.947 34.1399 65.947C34.439 65.947 34.6906 66.0113 34.8947 66.1399C35.0988 66.2657 35.2526 66.4446 35.356 66.6766C35.4622 66.9059 35.5153 67.1756 35.5153 67.4859ZM33.1503 67.4859C33.1503 67.7375 33.1852 67.9542 33.2551 68.1359C33.325 68.3176 33.4326 68.4574 33.578 68.5553C33.7262 68.6531 33.9121 68.702 34.1357 68.702C34.3622 68.702 34.5467 68.6531 34.6892 68.5553C34.8346 68.4574 34.9422 68.3176 35.0121 68.1359C35.082 67.9542 35.117 67.7375 35.117 67.4859C35.117 67.1085 35.0387 66.8136 34.8821 66.6011C34.7256 66.3859 34.4782 66.2782 34.1399 66.2782C33.9135 66.2782 33.7262 66.3272 33.578 66.425C33.4326 66.5201 33.325 66.6584 33.2551 66.8402C33.1852 67.0191 33.1503 67.2343 33.1503 67.4859ZM38.0282 66.7395V68.9872H37.6592V67.054H36.4976V68.9872H36.1286V66.7395H38.0282ZM40.4563 68.9872H40.0831V67.0456H39.4205C39.3926 67.4007 39.3576 67.704 39.3157 67.9556C39.2738 68.2044 39.2207 68.4071 39.1564 68.5636C39.0921 68.7202 39.0152 68.8348 38.9257 68.9075C38.8363 68.9802 38.7314 69.0165 38.6112 69.0165C38.5749 69.0165 38.5385 69.0137 38.5022 69.0081C38.4686 69.0054 38.4407 68.9984 38.4183 68.9872V68.7104C38.4351 68.716 38.4533 68.7202 38.4728 68.723C38.4924 68.7258 38.512 68.7272 38.5315 68.7272C38.593 68.7272 38.649 68.702 38.6993 68.6517C38.7496 68.6014 38.7943 68.5245 38.8335 68.4211C38.8754 68.3176 38.9131 68.1876 38.9467 68.0311C38.9802 67.8717 39.0096 67.6844 39.0348 67.4692C39.0599 67.2539 39.0823 67.0107 39.1018 66.7395H40.4563V68.9872ZM42.021 66.7018C42.2949 66.7018 42.4976 66.7619 42.629 66.8821C42.7604 67.0023 42.8261 67.1938 42.8261 67.4566V68.9872H42.5577L42.4864 68.6685H42.4697C42.4054 68.7496 42.3383 68.818 42.2684 68.874C42.2013 68.9271 42.123 68.9662 42.0336 68.9914C41.9469 69.0165 41.8407 69.0291 41.7149 69.0291C41.5807 69.0291 41.4591 69.0054 41.35 68.9578C41.2438 68.9103 41.1599 68.8376 41.0984 68.7398C41.0369 68.6391 41.0062 68.5133 41.0062 68.3624C41.0062 68.1387 41.0942 67.9668 41.2704 67.8466C41.4465 67.7236 41.7177 67.6565 42.0839 67.6453L42.4655 67.6327V67.4985C42.4655 67.3112 42.4249 67.1812 42.3439 67.1085C42.2628 67.0359 42.1482 66.9995 42 66.9995C41.8826 66.9995 41.7708 67.0177 41.6645 67.054C41.5583 67.0876 41.4591 67.1267 41.3668 67.1714L41.2536 66.8947C41.3514 66.8416 41.4674 66.7968 41.6016 66.7605C41.7358 66.7213 41.8756 66.7018 42.021 66.7018ZM42.13 67.9011C41.8504 67.9123 41.6562 67.957 41.5471 68.0353C41.4409 68.1136 41.3878 68.224 41.3878 68.3666C41.3878 68.4924 41.4255 68.5846 41.501 68.6433C41.5793 68.702 41.6785 68.7314 41.7987 68.7314C41.9888 68.7314 42.1468 68.6797 42.2726 68.5762C42.3984 68.47 42.4613 68.3079 42.4613 68.0898V67.8885L42.13 67.9011ZM45.0719 67.0498H44.338V68.9872H43.9732V67.0498H43.2477V66.7395H45.0719V67.0498ZM46.3659 66.7018C46.6399 66.7018 46.8425 66.7619 46.9739 66.8821C47.1053 67.0023 47.171 67.1938 47.171 67.4566V68.9872H46.9027L46.8314 68.6685H46.8146C46.7503 68.7496 46.6832 68.818 46.6133 68.874C46.5462 68.9271 46.4679 68.9662 46.3785 68.9914C46.2918 69.0165 46.1856 69.0291 46.0598 69.0291C45.9256 69.0291 45.804 69.0054 45.695 68.9578C45.5887 68.9103 45.5049 68.8376 45.4433 68.7398C45.3818 68.6391 45.3511 68.5133 45.3511 68.3624C45.3511 68.1387 45.4392 67.9668 45.6153 67.8466C45.7914 67.7236 46.0626 67.6565 46.4288 67.6453L46.8104 67.6327V67.4985C46.8104 67.3112 46.7699 67.1812 46.6888 67.1085C46.6077 67.0359 46.4931 66.9995 46.3449 66.9995C46.2275 66.9995 46.1157 67.0177 46.0095 67.054C45.9032 67.0876 45.804 67.1267 45.7117 67.1714L45.5985 66.8947C45.6964 66.8416 45.8124 66.7968 45.9466 66.7605C46.0807 66.7213 46.2205 66.7018 46.3659 66.7018ZM46.4749 67.9011C46.1954 67.9123 46.0011 67.957 45.892 68.0353C45.7858 68.1136 45.7327 68.224 45.7327 68.3666C45.7327 68.4924 45.7704 68.5846 45.8459 68.6433C45.9242 68.702 46.0234 68.7314 46.1436 68.7314C46.3337 68.7314 46.4917 68.6797 46.6175 68.5762C46.7433 68.47 46.8062 68.3079 46.8062 68.0898V67.8885L46.4749 67.9011Z" fill="#012033"/>
<rect x="32.4961" y="78.7296" width="76.0054" height="8.95084" rx="2.62088" fill="#F7F8F9"/>
<rect x="32.4961" y="94.5266" width="76.0054" height="8.95084" rx="2.62088" fill="#F7F8F9"/>
<rect x="32.4961" y="112.428" width="76.0054" height="8.95084" rx="2.62088" fill="#297AFF"/>
<rect x="32.4961" y="127.697" width="76.0054" height="8.95084" rx="2.62088" fill="#F7F8F9"/>
<path d="M66.4421 116.98C66.4421 117.212 66.4127 117.423 66.354 117.613C66.2953 117.8 66.2073 117.962 66.0899 118.099C65.9752 118.236 65.8313 118.341 65.6579 118.414C65.4874 118.486 65.2889 118.523 65.0625 118.523C64.8276 118.523 64.6236 118.486 64.4502 118.414C64.2769 118.338 64.1329 118.233 64.0183 118.099C63.9037 117.962 63.8184 117.799 63.7625 117.609C63.7066 117.419 63.6786 117.207 63.6786 116.975C63.6786 116.668 63.729 116.4 63.8296 116.17C63.9303 115.941 64.0826 115.762 64.2867 115.634C64.4936 115.505 64.7536 115.441 65.0667 115.441C65.3658 115.441 65.6174 115.505 65.8215 115.634C66.0256 115.759 66.1793 115.938 66.2828 116.17C66.389 116.4 66.4421 116.669 66.4421 116.98ZM64.077 116.98C64.077 117.231 64.112 117.448 64.1819 117.63C64.2517 117.811 64.3594 117.951 64.5047 118.049C64.6529 118.147 64.8388 118.196 65.0625 118.196C65.2889 118.196 65.4734 118.147 65.616 118.049C65.7614 117.951 65.869 117.811 65.9389 117.63C66.0088 117.448 66.0437 117.231 66.0437 116.98C66.0437 116.602 65.9655 116.307 65.8089 116.095C65.6523 115.88 65.4049 115.772 65.0667 115.772C64.8402 115.772 64.6529 115.821 64.5047 115.919C64.3594 116.014 64.2517 116.152 64.1819 116.334C64.112 116.513 64.077 116.728 64.077 116.98ZM68.955 116.233V118.481H68.586V116.548H67.4244V118.481H67.0554V116.233H68.955ZM71.3831 118.481H71.0099V116.539H70.3473C70.3193 116.894 70.2844 117.198 70.2425 117.449C70.2005 117.698 70.1474 117.901 70.0831 118.057C70.0188 118.214 69.9419 118.328 69.8525 118.401C69.763 118.474 69.6582 118.51 69.538 118.51C69.5016 118.51 69.4653 118.507 69.4289 118.502C69.3954 118.499 69.3674 118.492 69.3451 118.481V118.204C69.3619 118.21 69.38 118.214 69.3996 118.217C69.4192 118.219 69.4387 118.221 69.4583 118.221C69.5198 118.221 69.5757 118.196 69.626 118.145C69.6764 118.095 69.7211 118.018 69.7602 117.915C69.8022 117.811 69.8399 117.681 69.8734 117.525C69.907 117.365 69.9363 117.178 69.9615 116.963C69.9867 116.748 70.009 116.504 70.0286 116.233H71.3831V118.481ZM72.9477 116.195C73.2217 116.195 73.4244 116.256 73.5558 116.376C73.6872 116.496 73.7529 116.687 73.7529 116.95V118.481H73.4845L73.4132 118.162H73.3964C73.3321 118.243 73.265 118.312 73.1951 118.368C73.1281 118.421 73.0498 118.46 72.9603 118.485C72.8737 118.51 72.7674 118.523 72.6416 118.523C72.5074 118.523 72.3858 118.499 72.2768 118.451C72.1706 118.404 72.0867 118.331 72.0252 118.233C71.9637 118.133 71.9329 118.007 71.9329 117.856C71.9329 117.632 72.021 117.46 72.1971 117.34C72.3732 117.217 72.6444 117.15 73.0106 117.139L73.3922 117.126V116.992C73.3922 116.805 73.3517 116.675 73.2706 116.602C73.1896 116.53 73.0749 116.493 72.9268 116.493C72.8094 116.493 72.6975 116.511 72.5913 116.548C72.4851 116.581 72.3858 116.62 72.2936 116.665L72.1803 116.388C72.2782 116.335 72.3942 116.29 72.5284 116.254C72.6626 116.215 72.8024 116.195 72.9477 116.195ZM73.0568 117.395C72.7772 117.406 72.5829 117.451 72.4739 117.529C72.3676 117.607 72.3145 117.718 72.3145 117.86C72.3145 117.986 72.3523 118.078 72.4278 118.137C72.506 118.196 72.6053 118.225 72.7255 118.225C72.9156 118.225 73.0735 118.173 73.1993 118.07C73.3251 117.964 73.388 117.802 73.388 117.583V117.382L73.0568 117.395ZM75.9986 116.543H75.2648V118.481H74.9V116.543H74.1745V116.233H75.9986V116.543ZM76.7894 117.604C76.7894 117.63 76.788 117.666 76.7853 117.713C76.7853 117.758 76.7839 117.807 76.7811 117.86C76.7783 117.911 76.7755 117.959 76.7727 118.007C76.7699 118.052 76.7671 118.088 76.7643 118.116L77.9678 116.233H78.4207V118.481H78.0768V117.156C78.0768 117.111 78.0768 117.052 78.0768 116.98C78.0796 116.907 78.0824 116.836 78.0852 116.766C78.088 116.693 78.0908 116.639 78.0936 116.602L76.8985 118.481H76.4414V116.233H76.7894V117.604ZM80.6875 116.543H79.9537V118.481H79.5889V116.543H78.8634V116.233H80.6875V116.543ZM82.1661 117.156C82.3618 117.156 82.5239 117.179 82.6525 117.227C82.7811 117.275 82.8776 117.346 82.9419 117.441C83.0089 117.533 83.0425 117.651 83.0425 117.793C83.0425 117.933 83.0103 118.055 82.946 118.158C82.8845 118.261 82.7881 118.341 82.6567 118.397C82.5253 118.453 82.3562 118.481 82.1493 118.481H81.1303V116.233H81.4993V117.156H82.1661ZM82.6735 117.814C82.6735 117.677 82.6246 117.585 82.5267 117.537C82.4317 117.487 82.2975 117.462 82.1241 117.462H81.4993V118.183H82.1325C82.2891 118.183 82.4177 118.155 82.5183 118.099C82.6218 118.043 82.6735 117.948 82.6735 117.814Z" fill="white"/>
<rect x="35.1182" y="80.8386" width="4.1934" height="4.21216" rx="1.04835" fill="#E6E9EB"/>
<rect x="35.1182" y="96.6334" width="4.1934" height="4.21216" rx="1.04835" fill="#E6E9EB"/>
<rect x="101.164" y="96.6334" width="4.1934" height="4.21216" rx="1.04835" fill="#E6E9EB"/>
<rect x="41.4072" y="81.8911" width="38.2648" height="2.10608" rx="1.04835" fill="#E6E9EB"/>
<rect x="41.4072" y="97.6859" width="26.7329" height="2.10608" rx="1.04835" fill="#E6E9EB"/>
<rect x="32.4961" y="76.0985" width="20.4428" height="1.05304" rx="0.52652" fill="#012033"/>
<rect x="32.4961" y="91.8954" width="20.4428" height="1.05304" rx="0.52652" fill="#012033"/>
<rect x="33.0205" y="107.164" width="13.6286" height="1.05304" rx="0.52652" fill="#E6E9EB"/>
<rect x="94.874" y="107.164" width="13.6286" height="1.05304" rx="0.52652" fill="#E6E9EB"/>
<rect x="63.9473" y="124.011" width="13.6286" height="1.05304" rx="0.52652" fill="#F7F8F9"/>
<g filter="url(#filter0_dd_157_24976)">
<rect x="98.1885" y="34.7261" width="39.9294" height="39.8249" rx="19.9125" fill="white"/>
<rect x="103.18" y="40.1239" width="29.9471" height="29.9471" rx="14.9735" fill="#0BA259" fill-opacity="0.1"/>
<path d="M118.1 46.8369C113.529 46.8369 109.804 50.562 109.804 55.1332C109.804 59.7045 113.529 63.4295 118.1 63.4295C122.671 63.4295 126.396 59.7045 126.396 55.1332C126.396 50.562 122.671 46.8369 118.1 46.8369ZM122.066 53.2251L117.362 57.9291C117.245 58.0452 117.088 58.1116 116.922 58.1116C116.756 58.1116 116.598 58.0452 116.482 57.9291L114.134 55.5812C113.894 55.3406 113.894 54.9424 114.134 54.7018C114.375 54.4612 114.773 54.4612 115.014 54.7018L116.922 56.61L121.186 52.3457C121.427 52.1051 121.825 52.1051 122.066 52.3457C122.306 52.5862 122.306 52.9762 122.066 53.2251Z" fill="#05CC6C"/>
</g>
<defs>
<filter id="filter0_dd_157_24976" x="44.8695" y="0.442132" width="126.264" height="126.159" filterUnits="userSpaceOnUse" color-interpolation-filters="sRGB">
<feFlood flood-opacity="0" result="BackgroundImageFix"/>
<feColorMatrix in="SourceAlpha" type="matrix" values="0 0 0 0 0 0 0 0 0 0 0 0 0 0 0 0 0 0 127 0" result="hardAlpha"/>
<feOffset dx="-2.0304" dy="1.7766"/>
<feGaussianBlur stdDeviation="3.50731"/>
<feColorMatrix type="matrix" values="0 0 0 0 0 0 0 0 0 0 0 0 0 0 0 0 0 0 0.035 0"/>
<feBlend mode="normal" in2="BackgroundImageFix" result="effect1_dropShadow_157_24976"/>
<feColorMatrix in="SourceAlpha" type="matrix" values="0 0 0 0 0 0 0 0 0 0 0 0 0 0 0 0 0 0 127 0" result="hardAlpha"/>
<feOffset dx="-10.152" dy="8.88301"/>
<feGaussianBlur stdDeviation="21.5835"/>
<feColorMatrix type="matrix" values="0 0 0 0 0 0 0 0 0 0 0 0 0 0 0 0 0 0 0.07 0"/>
<feBlend mode="normal" in2="effect1_dropShadow_157_24976" result="effect2_dropShadow_157_24976"/>
<feBlend mode="normal" in="SourceGraphic" in2="effect2_dropShadow_157_24976" result="shape"/>
</filter>
</defs>
</svg>
