<svg width="172" height="169" viewBox="0 0 172 169" fill="none" xmlns="http://www.w3.org/2000/svg">
<rect x="0.5" y="29" width="140" height="140" rx="70" fill="#E6E9EB"/>
<rect x="27.2552" y="54.5111" width="86.4889" height="88.9818" rx="2.48889" fill="white"/>
<path d="M33.66 68.1487C33.5705 68.3472 33.4797 68.5136 33.3874 68.6478C33.2979 68.7791 33.1917 68.8784 33.0687 68.9455C32.9457 69.0098 32.7891 69.0419 32.599 69.0419C32.5208 69.0419 32.4467 69.0363 32.3768 69.0252C32.3097 69.014 32.2482 68.9986 32.1923 68.979V68.6058C32.2482 68.631 32.3083 68.6519 32.3726 68.6687C32.4369 68.6827 32.504 68.6897 32.5739 68.6897C32.6773 68.6897 32.7654 68.6757 32.8381 68.6478C32.9136 68.617 32.9792 68.5681 33.0352 68.501C33.0939 68.4339 33.1484 68.3444 33.1987 68.2326L32.0455 66.0059H32.4607L33.2952 67.6539C33.3063 67.6735 33.3175 67.6973 33.3287 67.7252C33.3399 67.7504 33.3511 67.7769 33.3622 67.8049C33.3762 67.8328 33.3874 67.8594 33.3958 67.8846H33.4126C33.421 67.865 33.4293 67.8426 33.4377 67.8175C33.4489 67.7895 33.4587 67.7629 33.4671 67.7378C33.4783 67.7098 33.488 67.6861 33.4964 67.6665L34.2177 66.0059H34.6161L33.66 68.1487ZM35.2136 67.5701C35.2136 67.7014 35.2499 67.7993 35.3226 67.8636C35.3981 67.9251 35.5057 67.9558 35.6455 67.9558C35.7853 67.9558 35.9125 67.9349 36.0271 67.8929C36.1417 67.8482 36.2592 67.7895 36.3794 67.7168V66.7523H36.7484V69H36.3794V67.9978C36.2536 68.0788 36.1292 68.1431 36.0062 68.1907C35.8859 68.2354 35.7406 68.2578 35.57 68.2578C35.3408 68.2578 35.1619 68.1977 35.0333 68.0775C34.9075 67.9572 34.8446 67.7965 34.8446 67.5952V66.7523H35.2136V67.5701ZM38.3305 66.7104C38.5234 66.7104 38.6883 66.7523 38.8253 66.8362C38.9651 66.9201 39.0713 67.0389 39.144 67.1926C39.2195 67.3436 39.2572 67.5211 39.2572 67.7252V67.9475H37.7182C37.7238 68.2019 37.7881 68.3962 37.9111 68.5303C38.0369 68.6617 38.2117 68.7274 38.4353 68.7274C38.5779 68.7274 38.7037 68.7148 38.8127 68.6897C38.9245 68.6617 39.0392 68.6226 39.1566 68.5723V68.8952C39.042 68.9455 38.9287 68.9818 38.8169 69.0042C38.7051 69.0294 38.5723 69.0419 38.4185 69.0419C38.2061 69.0419 38.0174 68.9986 37.8524 68.9119C37.6903 68.8253 37.5631 68.6967 37.4708 68.5261C37.3814 68.3528 37.3366 68.1418 37.3366 67.8929C37.3366 67.6469 37.3772 67.4359 37.4582 67.2597C37.5421 67.0836 37.6581 66.948 37.8063 66.853C37.9573 66.7579 38.132 66.7104 38.3305 66.7104ZM38.3263 67.0123C38.1502 67.0123 38.0104 67.0696 37.9069 67.1843C37.8063 67.2961 37.7462 67.4526 37.7266 67.6539H38.8714C38.8714 67.5253 38.8519 67.4135 38.8127 67.3184C38.7736 67.2234 38.7135 67.1493 38.6324 67.0962C38.5541 67.0403 38.4521 67.0123 38.3263 67.0123ZM41.381 67.0626H40.6471V69H40.2823V67.0626H39.5568V66.7523H41.381V67.0626ZM42.1928 66.7523V67.6875H43.413V66.7523H43.7821V69H43.413V67.9978H42.1928V69H41.8237V66.7523H42.1928ZM45.345 66.7146C45.619 66.7146 45.8217 66.7747 45.9531 66.8949C46.0845 67.0151 46.1501 67.2066 46.1501 67.4694V69H45.8818L45.8105 68.6813H45.7937C45.7294 68.7624 45.6623 68.8309 45.5924 68.8868C45.5253 68.9399 45.4471 68.979 45.3576 69.0042C45.2709 69.0294 45.1647 69.0419 45.0389 69.0419C44.9047 69.0419 44.7831 69.0182 44.6741 68.9706C44.5678 68.9231 44.484 68.8504 44.4225 68.7526C44.361 68.6519 44.3302 68.5261 44.3302 68.3752C44.3302 68.1515 44.4183 67.9796 44.5944 67.8594C44.7705 67.7364 45.0417 67.6693 45.4079 67.6581L45.7895 67.6455V67.5113C45.7895 67.324 45.749 67.194 45.6679 67.1214C45.5868 67.0487 45.4722 67.0123 45.3241 67.0123C45.2066 67.0123 45.0948 67.0305 44.9886 67.0668C44.8823 67.1004 44.7831 67.1395 44.6908 67.1843L44.5776 66.9075C44.6755 66.8544 44.7915 66.8096 44.9257 66.7733C45.0599 66.7342 45.1996 66.7146 45.345 66.7146ZM45.454 67.9139C45.1745 67.9251 44.9802 67.9698 44.8712 68.0481C44.7649 68.1264 44.7118 68.2368 44.7118 68.3794C44.7118 68.5052 44.7496 68.5974 44.825 68.6561C44.9033 68.7148 45.0026 68.7442 45.1228 68.7442C45.3129 68.7442 45.4708 68.6925 45.5966 68.589C45.7224 68.4828 45.7853 68.3207 45.7853 68.1026V67.9013L45.454 67.9139ZM46.9827 69H46.555L47.1966 68.0565C47.1099 68.0341 47.0261 67.9992 46.945 67.9516C46.8639 67.9013 46.7982 67.8328 46.7479 67.7462C46.6976 67.6567 46.6724 67.5463 46.6724 67.4149C46.6724 67.1996 46.7451 67.0361 46.8905 66.9243C47.0359 66.8096 47.2287 66.7523 47.4692 66.7523H48.4756V69H48.1066V68.1068H47.5614L46.9827 69ZM47.0289 67.4191C47.0289 67.5477 47.0764 67.6441 47.1714 67.7084C47.2693 67.7699 47.4049 67.8007 47.5782 67.8007H48.1066V67.0585H47.5069C47.3364 67.0585 47.2134 67.092 47.1379 67.1591C47.0652 67.2262 47.0289 67.3129 47.0289 67.4191ZM50.8346 66.7104C51.0051 66.7104 51.1533 66.7342 51.2791 66.7817C51.4049 66.8264 51.5027 66.8935 51.5726 66.983C51.6425 67.0696 51.6774 67.1759 51.6774 67.3017C51.6774 67.4387 51.6397 67.5477 51.5642 67.6288C51.4887 67.707 51.3853 67.7643 51.2539 67.8007V67.8175C51.3434 67.8426 51.4258 67.8776 51.5013 67.9223C51.5768 67.967 51.6369 68.0257 51.6816 68.0984C51.7292 68.1711 51.7529 68.2648 51.7529 68.3794C51.7529 68.5024 51.718 68.6142 51.6481 68.7148C51.581 68.8155 51.4762 68.8952 51.3336 68.9539C51.1938 69.0126 51.0135 69.0419 50.7926 69.0419C50.6864 69.0419 50.5844 69.0363 50.4865 69.0252C50.3915 69.014 50.3048 68.9972 50.2265 68.9748C50.151 68.9525 50.084 68.9259 50.0252 68.8952V68.5639C50.1203 68.6086 50.2321 68.6492 50.3607 68.6855C50.4921 68.7218 50.6347 68.74 50.7884 68.74C50.9003 68.74 51.0009 68.7274 51.0904 68.7023C51.1826 68.6771 51.2553 68.638 51.3084 68.5849C51.3615 68.5289 51.3881 68.4535 51.3881 68.3584C51.3881 68.2717 51.3643 68.2019 51.3168 68.1487C51.2693 68.0928 51.198 68.0509 51.1029 68.0229C51.0107 67.995 50.8919 67.981 50.7465 67.981H50.4446V67.6791H50.6878C50.8807 67.6791 51.0345 67.6539 51.1491 67.6036C51.2665 67.5505 51.3252 67.461 51.3252 67.3352C51.3252 67.229 51.2805 67.1493 51.191 67.0962C51.1043 67.0431 50.9785 67.0165 50.8136 67.0165C50.6906 67.0165 50.5816 67.0291 50.4865 67.0543C50.3943 67.0766 50.2922 67.1116 50.1804 67.1591L50.0504 66.8656C50.1706 66.8124 50.2964 66.7733 50.4278 66.7481C50.5592 66.723 50.6948 66.7104 50.8346 66.7104ZM53.1503 66.7146C53.4243 66.7146 53.627 66.7747 53.7584 66.8949C53.8897 67.0151 53.9554 67.2066 53.9554 67.4694V69H53.6871L53.6158 68.6813H53.599C53.5347 68.7624 53.4676 68.8309 53.3977 68.8868C53.3306 68.9399 53.2524 68.979 53.1629 69.0042C53.0762 69.0294 52.97 69.0419 52.8442 69.0419C52.71 69.0419 52.5884 69.0182 52.4794 68.9706C52.3731 68.9231 52.2893 68.8504 52.2278 68.7526C52.1663 68.6519 52.1355 68.5261 52.1355 68.3752C52.1355 68.1515 52.2236 67.9796 52.3997 67.8594C52.5758 67.7364 52.847 67.6693 53.2132 67.6581L53.5948 67.6455V67.5113C53.5948 67.324 53.5543 67.194 53.4732 67.1214C53.3921 67.0487 53.2775 67.0123 53.1293 67.0123C53.0119 67.0123 52.9001 67.0305 52.7939 67.0668C52.6876 67.1004 52.5884 67.1395 52.4961 67.1843L52.3829 66.9075C52.4808 66.8544 52.5968 66.8096 52.731 66.7733C52.8652 66.7342 53.0049 66.7146 53.1503 66.7146ZM53.2593 67.9139C52.9798 67.9251 52.7855 67.9698 52.6765 68.0481C52.5702 68.1264 52.5171 68.2368 52.5171 68.3794C52.5171 68.5052 52.5548 68.5974 52.6303 68.6561C52.7086 68.7148 52.8078 68.7442 52.9281 68.7442C53.1182 68.7442 53.2761 68.6925 53.4019 68.589C53.5277 68.4828 53.5906 68.3207 53.5906 68.1026V67.9013L53.2593 67.9139ZM56.5493 66.7523V69H56.1802V67.0668H55.0187V69H54.6496V66.7523H56.5493ZM57.6145 68.1236C57.6145 68.1487 57.6131 68.1851 57.6103 68.2326C57.6103 68.2773 57.6089 68.3263 57.6061 68.3794C57.6033 68.4297 57.6005 68.4786 57.5977 68.5261C57.5949 68.5709 57.5921 68.6072 57.5893 68.6352L58.7928 66.7523H59.2457V69H58.9019V67.6749C58.9019 67.6302 58.9019 67.5714 58.9019 67.4988C58.9047 67.4261 58.9074 67.3548 58.9102 67.2849C58.913 67.2122 58.9158 67.1577 58.9186 67.1214L57.7235 69H57.2664V66.7523H57.6145V68.1236ZM60.8626 69.0419C60.6641 69.0419 60.4866 69.0014 60.33 68.9203C60.1763 68.8393 60.0547 68.7135 59.9652 68.5429C59.8785 68.3724 59.8352 68.1543 59.8352 67.8887C59.8352 67.612 59.8813 67.3869 59.9736 67.2136C60.0659 67.0403 60.1903 66.9131 60.3468 66.832C60.5062 66.7509 60.6865 66.7104 60.8878 66.7104C61.0024 66.7104 61.1128 66.723 61.219 66.7481C61.3253 66.7705 61.4119 66.7985 61.479 66.832L61.3658 67.1381C61.2987 67.113 61.2204 67.0892 61.131 67.0668C61.0415 67.0445 60.9576 67.0333 60.8794 67.0333C60.7284 67.0333 60.604 67.0654 60.5062 67.1297C60.4083 67.194 60.3356 67.2891 60.2881 67.4149C60.2406 67.5407 60.2168 67.6973 60.2168 67.8846C60.2168 68.0635 60.2406 68.2158 60.2881 68.3416C60.3356 68.4674 60.4069 68.5625 60.502 68.6268C60.597 68.6911 60.7158 68.7232 60.8584 68.7232C60.9814 68.7232 61.089 68.7107 61.1813 68.6855C61.2763 68.6603 61.363 68.6296 61.4413 68.5932V68.9203C61.3658 68.9595 61.2819 68.9888 61.1897 69.0084C61.1002 69.0308 60.9912 69.0419 60.8626 69.0419Z" fill="#012033"/>
<rect x="32.4967" y="78.7296" width="76.0054" height="8.95084" rx="2.62088" fill="#F7F8F9"/>
<rect x="32.4967" y="94.5266" width="76.0054" height="8.95084" rx="2.62088" fill="#F7F8F9"/>
<rect x="32.4967" y="127.697" width="76.0054" height="8.95084" rx="2.62088" fill="#F8F9FB"/>
<rect x="31.9994" y="112" width="76.0054" height="8.95084" rx="2.62088" fill="#297AFF"/>
<path d="M60.5758 118V115.006H62.8234V118H62.4502V115.337H60.9532V118H60.5758ZM65.5468 116.872C65.5468 117.059 65.5217 117.226 65.4713 117.371C65.4238 117.514 65.3539 117.635 65.2617 117.736C65.1722 117.836 65.0618 117.913 64.9304 117.966C64.8018 118.017 64.6578 118.042 64.4985 118.042C64.3503 118.042 64.2133 118.017 64.0875 117.966C63.9617 117.913 63.8527 117.836 63.7604 117.736C63.6682 117.635 63.5955 117.514 63.5424 117.371C63.4921 117.226 63.4669 117.059 63.4669 116.872C63.4669 116.623 63.5088 116.413 63.5927 116.243C63.6766 116.07 63.7968 115.938 63.9533 115.849C64.1099 115.757 64.2958 115.71 64.511 115.71C64.7151 115.71 64.894 115.757 65.0478 115.849C65.2044 115.938 65.326 116.07 65.4126 116.243C65.5021 116.413 65.5468 116.623 65.5468 116.872ZM63.8485 116.872C63.8485 117.048 63.8709 117.202 63.9156 117.333C63.9631 117.462 64.0358 117.561 64.1336 117.631C64.2315 117.701 64.3559 117.736 64.5069 117.736C64.6578 117.736 64.7822 117.701 64.8801 117.631C64.9779 117.561 65.0492 117.462 65.0939 117.333C65.1415 117.202 65.1652 117.048 65.1652 116.872C65.1652 116.693 65.1415 116.541 65.0939 116.415C65.0464 116.289 64.9737 116.193 64.8759 116.126C64.7808 116.056 64.6564 116.021 64.5027 116.021C64.2734 116.021 64.1071 116.096 64.0036 116.247C63.9002 116.398 63.8485 116.606 63.8485 116.872ZM67.6423 116.063H66.9084V118H66.5436V116.063H65.8181V115.752H67.6423V116.063ZM69.8924 116.318C69.8924 116.458 69.8505 116.567 69.7666 116.646C69.6827 116.724 69.5751 116.777 69.4437 116.805V116.822C69.5835 116.841 69.7051 116.892 69.8085 116.973C69.912 117.051 69.9637 117.174 69.9637 117.342C69.9637 117.437 69.9455 117.525 69.9092 117.606C69.8756 117.687 69.8225 117.757 69.7498 117.815C69.6771 117.874 69.5835 117.92 69.4689 117.954C69.3542 117.985 69.2159 118 69.0537 118H68.085V115.752H69.0495C69.2089 115.752 69.3514 115.771 69.4772 115.807C69.6058 115.84 69.7065 115.899 69.7792 115.983C69.8547 116.064 69.8924 116.176 69.8924 116.318ZM69.5821 117.342C69.5821 117.213 69.5332 117.121 69.4353 117.065C69.3375 117.009 69.1935 116.981 69.0034 116.981H68.4541V117.702H69.0118C69.1963 117.702 69.3375 117.676 69.4353 117.623C69.5332 117.567 69.5821 117.473 69.5821 117.342ZM69.5192 116.365C69.5192 116.258 69.48 116.181 69.4018 116.134C69.3263 116.084 69.2019 116.058 69.0286 116.058H68.4541V116.675H68.9615C69.1432 116.675 69.2816 116.65 69.3766 116.599C69.4717 116.549 69.5192 116.471 69.5192 116.365ZM71.3692 115.71C71.5621 115.71 71.727 115.752 71.864 115.836C72.0038 115.92 72.11 116.039 72.1827 116.193C72.2582 116.344 72.2959 116.521 72.2959 116.725V116.947H70.757C70.7625 117.202 70.8268 117.396 70.9499 117.53C71.0757 117.662 71.2504 117.727 71.474 117.727C71.6166 117.727 71.7424 117.715 71.8514 117.69C71.9633 117.662 72.0779 117.623 72.1953 117.572V117.895C72.0807 117.945 71.9674 117.982 71.8556 118.004C71.7438 118.029 71.611 118.042 71.4573 118.042C71.2448 118.042 71.0561 117.999 70.8911 117.912C70.729 117.825 70.6018 117.697 70.5095 117.526C70.4201 117.353 70.3754 117.142 70.3754 116.893C70.3754 116.647 70.4159 116.436 70.497 116.26C70.5808 116.084 70.6968 115.948 70.845 115.853C70.996 115.758 71.1707 115.71 71.3692 115.71ZM71.365 116.012C71.1889 116.012 71.0491 116.07 70.9457 116.184C70.845 116.296 70.7849 116.453 70.7653 116.654H71.9101C71.9101 116.525 71.8906 116.413 71.8514 116.318C71.8123 116.223 71.7522 116.149 71.6711 116.096C71.5928 116.04 71.4908 116.012 71.365 116.012ZM73.9375 115.71C74.2142 115.71 74.4365 115.807 74.6042 116C74.7747 116.193 74.86 116.483 74.86 116.872C74.86 117.126 74.8209 117.342 74.7426 117.518C74.6671 117.691 74.5595 117.822 74.4197 117.912C74.2827 117.999 74.1206 118.042 73.9333 118.042C73.8186 118.042 73.7166 118.027 73.6271 117.996C73.5377 117.965 73.4608 117.926 73.3965 117.878C73.335 117.828 73.2819 117.774 73.2372 117.715H73.212C73.2176 117.762 73.2232 117.822 73.2288 117.895C73.2344 117.968 73.2372 118.031 73.2372 118.084V119.006H72.8681V115.752H73.1701L73.2204 116.058H73.2372C73.2819 115.994 73.335 115.935 73.3965 115.882C73.4608 115.829 73.5363 115.787 73.6229 115.757C73.7124 115.726 73.8172 115.71 73.9375 115.71ZM73.8704 116.021C73.7194 116.021 73.5978 116.05 73.5055 116.109C73.4133 116.165 73.3462 116.25 73.3042 116.365C73.2623 116.479 73.2399 116.625 73.2372 116.801V116.872C73.2372 117.056 73.2567 117.213 73.2959 117.342C73.335 117.47 73.4007 117.568 73.493 117.635C73.588 117.702 73.7166 117.736 73.8787 117.736C74.0157 117.736 74.1276 117.698 74.2142 117.623C74.3037 117.547 74.3694 117.445 74.4113 117.316C74.456 117.185 74.4784 117.036 74.4784 116.868C74.4784 116.611 74.4281 116.405 74.3274 116.251C74.2296 116.098 74.0772 116.021 73.8704 116.021ZM77.117 115.752V117.69H77.4441V118.78H77.0877V118H75.5235V118.78H75.1713V117.69H75.3516C75.4802 117.511 75.5864 117.316 75.6703 117.107C75.757 116.894 75.8213 116.673 75.8632 116.444C75.9079 116.212 75.9317 115.982 75.9345 115.752H77.117ZM76.2616 116.042C76.2504 116.232 76.221 116.429 76.1735 116.633C76.126 116.834 76.0645 117.027 75.989 117.212C75.9163 117.396 75.8311 117.555 75.7332 117.69H76.7606V116.042H76.2616ZM78.2327 117.124C78.2327 117.149 78.2313 117.185 78.2285 117.233C78.2285 117.277 78.2271 117.326 78.2243 117.379C78.2215 117.43 78.2187 117.479 78.2159 117.526C78.2131 117.571 78.2103 117.607 78.2075 117.635L79.4111 115.752H79.8639V118H79.5201V116.675C79.5201 116.63 79.5201 116.571 79.5201 116.499C79.5229 116.426 79.5257 116.355 79.5285 116.285C79.5313 116.212 79.5341 116.158 79.5369 116.121L78.3417 118H77.8847V115.752H78.2327V117.124ZM82.1308 116.063H81.397V118H81.0321V116.063H80.3067V115.752H82.1308V116.063ZM83.6093 116.675C83.805 116.675 83.9672 116.699 84.0958 116.746C84.2244 116.794 84.3208 116.865 84.3851 116.96C84.4522 117.052 84.4858 117.17 84.4858 117.312C84.4858 117.452 84.4536 117.574 84.3893 117.677C84.3278 117.781 84.2314 117.86 84.1 117.916C83.9686 117.972 83.7994 118 83.5926 118H82.5736V115.752H82.9426V116.675H83.6093ZM84.1167 117.333C84.1167 117.196 84.0678 117.104 83.97 117.056C83.8749 117.006 83.7407 116.981 83.5674 116.981H82.9426V117.702H83.5758C83.7323 117.702 83.8609 117.674 83.9616 117.618C84.065 117.562 84.1167 117.467 84.1167 117.333Z" fill="white"/>
<rect x="35.118" y="80.8386" width="4.1934" height="4.21216" rx="1.04835" fill="#E6E9EB"/>
<rect x="35.118" y="96.6334" width="4.1934" height="4.21216" rx="1.04835" fill="#E6E9EB"/>
<rect x="101.164" y="96.6335" width="4.1934" height="4.21216" rx="1.04835" fill="#E6E9EB"/>
<rect x="41.4083" y="81.8911" width="38.2648" height="2.10608" rx="1.04835" fill="#E6E9EB"/>
<rect x="41.4083" y="97.6859" width="26.7329" height="2.10608" rx="1.04835" fill="#E6E9EB"/>
<rect x="32.4967" y="76.0985" width="20.4428" height="1.05304" rx="0.52652" fill="#012033"/>
<rect x="32.4967" y="91.8954" width="20.4428" height="1.05304" rx="0.52652" fill="#012033"/>
<rect x="33.0217" y="107.164" width="13.6286" height="1.05304" rx="0.52652" fill="#E6E9EB"/>
<rect x="94.8733" y="107.164" width="13.6286" height="1.05304" rx="0.52652" fill="#E6E9EB"/>
<rect x="63.9469" y="124.011" width="13.6286" height="1.05304" rx="0.52652" fill="#F8F8F8"/>
<g filter="url(#filter0_dd_157_15933)">
<rect x="98.1888" y="34.7261" width="39.9294" height="39.8249" rx="19.9125" fill="white"/>
<rect x="103.179" y="40.1239" width="29.9471" height="29.9471" rx="14.9735" fill="#D8F9E6"/>
<path d="M118.1 46.8369C113.528 46.8369 109.803 50.562 109.803 55.1332C109.803 59.7045 113.528 63.4295 118.1 63.4295C122.671 63.4295 126.396 59.7045 126.396 55.1332C126.396 50.562 122.671 46.8369 118.1 46.8369ZM122.065 53.2251L117.361 57.9291C117.245 58.0452 117.087 58.1116 116.922 58.1116C116.756 58.1116 116.598 58.0452 116.482 57.9291L114.134 55.5812C113.893 55.3406 113.893 54.9424 114.134 54.7018C114.375 54.4612 114.773 54.4612 115.013 54.7018L116.922 56.61L121.186 52.3457C121.426 52.1051 121.825 52.1051 122.065 52.3457C122.306 52.5862 122.306 52.9762 122.065 53.2251Z" fill="#05CC6C"/>
</g>
<defs>
<filter id="filter0_dd_157_15933" x="44.8699" y="0.442132" width="126.263" height="126.159" filterUnits="userSpaceOnUse" color-interpolation-filters="sRGB">
<feFlood flood-opacity="0" result="BackgroundImageFix"/>
<feColorMatrix in="SourceAlpha" type="matrix" values="0 0 0 0 0 0 0 0 0 0 0 0 0 0 0 0 0 0 127 0" result="hardAlpha"/>
<feOffset dx="-2.0304" dy="1.7766"/>
<feGaussianBlur stdDeviation="3.50731"/>
<feColorMatrix type="matrix" values="0 0 0 0 0 0 0 0 0 0 0 0 0 0 0 0 0 0 0.035 0"/>
<feBlend mode="normal" in2="BackgroundImageFix" result="effect1_dropShadow_157_15933"/>
<feColorMatrix in="SourceAlpha" type="matrix" values="0 0 0 0 0 0 0 0 0 0 0 0 0 0 0 0 0 0 127 0" result="hardAlpha"/>
<feOffset dx="-10.152" dy="8.88301"/>
<feGaussianBlur stdDeviation="21.5835"/>
<feColorMatrix type="matrix" values="0 0 0 0 0 0 0 0 0 0 0 0 0 0 0 0 0 0 0.07 0"/>
<feBlend mode="normal" in2="effect1_dropShadow_157_15933" result="effect2_dropShadow_157_15933"/>
<feBlend mode="normal" in="SourceGraphic" in2="effect2_dropShadow_157_15933" result="shape"/>
</filter>
</defs>
</svg>
