<svg width="48" height="48" viewBox="0 0 48 48" fill="none" xmlns="http://www.w3.org/2000/svg">
<rect width="48" height="48" rx="8" fill="white"/>
<path d="M32.4365 25.1249L30.3946 25.6874L27.9365 26.4299V30.8286C27.9369 31.787 28.1536 32.7328 28.5705 33.5958C28.9873 34.4587 29.5936 35.2164 30.344 35.8124C30.9653 36.3146 31.675 36.6961 32.4365 36.9374C33.7353 36.5316 34.8713 35.7231 35.6803 34.629C36.4893 33.5349 36.9292 32.2118 36.9365 30.8511V26.4299L32.4365 25.1249ZM35.0859 30.0018L32.2734 32.8143C32.2211 32.867 32.1589 32.9088 32.0903 32.9374C32.0218 32.9659 31.9483 32.9806 31.874 32.9806C31.7998 32.9806 31.7262 32.9659 31.6577 32.9374C31.5892 32.9088 31.5269 32.867 31.4746 32.8143L30.0684 31.408C29.9625 31.3021 29.903 31.1584 29.903 31.0086C29.903 30.8588 29.9625 30.7152 30.0684 30.6093C30.1743 30.5033 30.318 30.4438 30.4678 30.4438C30.6176 30.4438 30.7612 30.5033 30.8671 30.6093L31.874 31.6443L34.2871 29.2255C34.3931 29.1196 34.5367 29.0601 34.6865 29.0601C34.8363 29.0601 34.98 29.1196 35.0859 29.2255C35.1918 29.3314 35.2513 29.4751 35.2513 29.6249C35.2513 29.7747 35.1918 29.9183 35.0859 30.0243V30.0018Z" fill="#297AFF"/>
<path d="M30.5526 24.5174L29.287 21.8005L31.8745 19.2299C32.6509 18.4538 33.2142 17.4906 33.5098 16.4334C33.8054 15.3761 33.8233 14.2605 33.562 13.1942C33.5374 13.0949 33.4861 13.0042 33.4137 12.9319C33.3414 12.8595 33.2507 12.8082 33.1514 12.7836C32.0851 12.5223 30.9695 12.5402 29.9122 12.8358C28.855 13.1314 27.8918 13.6947 27.1157 14.4711L24.5113 17.0249L20.7032 15.253C20.7755 15.1395 20.8047 15.0038 20.7855 14.8706C20.7663 14.7374 20.6999 14.6155 20.5985 14.5271C20.4971 14.4386 20.3674 14.3894 20.2328 14.3884C20.0982 14.3875 19.9678 14.4348 19.8651 14.5217L19.6345 14.7524L17.4632 13.7399C17.5159 13.6876 17.5578 13.6254 17.5864 13.5568C17.6149 13.4883 17.6296 13.4148 17.6296 13.3405C17.6296 13.2662 17.6149 13.1927 17.5864 13.1242C17.5578 13.0556 17.5159 12.9934 17.4632 12.9411C17.3578 12.8364 17.2153 12.7776 17.0667 12.7776C16.9181 12.7776 16.7755 12.8364 16.6701 12.9411L16.372 13.2392L12.9351 11.6249C12.8304 11.5761 12.7133 11.5607 12.5995 11.5809C12.4858 11.601 12.3811 11.6556 12.2995 11.7374L9.93697 14.1224C9.87836 14.1808 9.83335 14.2514 9.80516 14.3292C9.77696 14.4069 9.76627 14.49 9.77385 14.5724C9.77657 14.6554 9.79766 14.7368 9.83559 14.8107C9.87352 14.8846 9.92736 14.9492 9.99322 14.9999L19.7807 21.7499L16.687 24.8661C16.6547 24.8947 16.628 24.929 16.6082 24.9674L15.3201 27.043L12.097 25.918C11.9998 25.8875 11.8961 25.8839 11.797 25.9076C11.698 25.9314 11.6072 25.9817 11.5345 26.053L10.3138 27.2511C10.2573 27.3078 10.2136 27.3759 10.1855 27.4508C10.1573 27.5258 10.1456 27.6059 10.1509 27.6857C10.1562 27.7656 10.1785 27.8434 10.2163 27.914C10.2541 27.9845 10.3066 28.0462 10.3701 28.0949L13.312 30.3111L13.2445 30.4236C13.0139 30.7956 12.9158 31.2345 12.9662 31.6692C13.0165 32.1039 13.2123 32.5089 13.5217 32.8183C13.8311 33.1277 14.2361 33.3235 14.6708 33.3738C15.1055 33.4241 15.5444 33.3261 15.9163 33.0955L16.0288 33.028L18.2451 35.9417C18.2939 36.0055 18.3558 36.0581 18.4267 36.0959C18.4975 36.1338 18.5756 36.156 18.6557 36.1611H18.6895C18.7639 36.1608 18.8375 36.1457 18.9061 36.1168C18.9746 36.0878 19.0368 36.0455 19.0888 35.9924L20.2813 34.7999C20.3527 34.7271 20.4029 34.6364 20.4267 34.5373C20.4505 34.4382 20.4469 34.3346 20.4163 34.2374L19.2913 31.0142L21.367 29.7261C21.4053 29.7064 21.4396 29.6797 21.4682 29.6474L24.562 26.5311L26.812 29.7992V26.0024C26.8073 25.8761 26.8453 25.752 26.9198 25.6499C26.9943 25.5479 27.1009 25.4739 27.2226 25.4399L29.4726 24.8042L30.5526 24.5174Z" fill="#297AFF"/>
</svg>
