<svg width="25" height="24" viewBox="0 0 25 24" fill="none" xmlns="http://www.w3.org/2000/svg">
<path d="M14.8937 3.19949L14.894 3.19968L20.6539 7.22961C20.6539 7.22964 20.654 7.22966 20.654 7.22968C21.1232 7.55815 21.5675 8.09671 21.8949 8.72389C22.2223 9.35111 22.4106 10.0243 22.4106 10.6V17.38C22.4106 19.6539 20.5645 21.5 18.2906 21.5H7.51062C5.23817 21.5 3.39062 19.6453 3.39062 17.37V10.47C3.39062 9.93556 3.56101 9.29648 3.8592 8.69086C4.15725 8.08551 4.56169 7.55688 4.98814 7.22425L4.98825 7.22417L9.99687 3.31524C9.99709 3.31507 9.99731 3.3149 9.99753 3.31473C11.3344 2.27943 13.5034 2.22541 14.8937 3.19949ZM12.9006 19.25C13.5868 19.25 14.1506 18.6861 14.1506 18V15C14.1506 14.3139 13.5868 13.75 12.9006 13.75C12.2145 13.75 11.6506 14.3139 11.6506 15V18C11.6506 18.6861 12.2145 19.25 12.9006 19.25Z" fill="#297AFF" stroke="#297AFF"/>
</svg>
