<svg width="116" height="116" viewBox="0 0 116 116" fill="none" xmlns="http://www.w3.org/2000/svg">
<circle cx="58" cy="58" r="58" fill="#F7F8F9"/>
<path d="M58.3201 55.74C58.1201 55.72 57.8801 55.72 57.6601 55.74C52.9001 55.58 49.1201 51.68 49.1201 46.88C49.1201 41.98 53.0801 38 58.0001 38C62.9001 38 66.8801 41.98 66.8801 46.88C66.8601 51.68 63.0801 55.58 58.3201 55.74Z" stroke="#677985" stroke-width="1.5" stroke-linecap="round" stroke-linejoin="round"/>
<path d="M48.3199 63.12C43.4799 66.36 43.4799 71.64 48.3199 74.86C53.8199 78.54 62.8399 78.54 68.3399 74.86C73.1799 71.62 73.1799 66.34 68.3399 63.12C62.8599 59.46 53.8399 59.46 48.3199 63.12Z" stroke="#677985" stroke-width="1.5" stroke-linecap="round" stroke-linejoin="round"/>
</svg>
