<svg width="25" height="24" viewBox="0 0 25 24" fill="none" xmlns="http://www.w3.org/2000/svg">
<path d="M22.3916 7.55002C22.3916 8.21002 21.8516 8.75002 21.1916 8.75002H3.5916C2.9316 8.75002 2.3916 8.21002 2.3916 7.55002V7.54002C2.3916 5.25002 4.2416 3.40002 6.5316 3.40002H18.2416C20.5316 3.40002 22.3916 5.26002 22.3916 7.55002Z" fill="#297AFF"/>
<path d="M2.3916 11.45V16.46C2.3916 18.75 4.2416 20.6 6.5316 20.6H18.2416C20.5316 20.6 22.3916 18.74 22.3916 16.45V11.45C22.3916 10.79 21.8516 10.25 21.1916 10.25H3.5916C2.9316 10.25 2.3916 10.79 2.3916 11.45ZM8.3916 17.25H6.3916C5.9816 17.25 5.6416 16.91 5.6416 16.5C5.6416 16.09 5.9816 15.75 6.3916 15.75H8.3916C8.8016 15.75 9.1416 16.09 9.1416 16.5C9.1416 16.91 8.8016 17.25 8.3916 17.25ZM14.8916 17.25H10.8916C10.4816 17.25 10.1416 16.91 10.1416 16.5C10.1416 16.09 10.4816 15.75 10.8916 15.75H14.8916C15.3016 15.75 15.6416 16.09 15.6416 16.5C15.6416 16.91 15.3016 17.25 14.8916 17.25Z" fill="#297AFF"/>
</svg>
