<svg width="48" height="48" viewBox="0 0 48 48" fill="none" xmlns="http://www.w3.org/2000/svg">
<rect width="48" height="48" rx="8" fill="white"/>
<path d="M12.1875 32.4375H17.25V34.6875C17.25 34.9859 17.1315 35.272 16.9205 35.483C16.7095 35.694 16.4234 35.8125 16.125 35.8125H13.3125C13.0141 35.8125 12.728 35.694 12.517 35.483C12.306 35.272 12.1875 34.9859 12.1875 34.6875V32.4375Z" fill="#297AFF"/>
<path d="M37.005 22.8187L35.25 20.625L33.2081 14.4938C32.9839 13.8222 32.5542 13.2382 31.9799 12.8243C31.4055 12.4104 30.7155 12.1876 30.0075 12.1875H17.9925C17.2845 12.1876 16.5945 12.4104 16.0201 12.8243C15.4458 13.2382 15.0161 13.8222 14.7919 14.4938L12.75 20.625L10.995 22.8187C10.675 23.2176 10.5004 23.7136 10.5 24.225V29.625C10.5 30.0726 10.6778 30.5018 10.9943 30.8182C11.3107 31.1347 11.7399 31.3125 12.1875 31.3125H20.0625L20.625 30.75H27.375L27.9375 31.3125H28.8206C28.6109 30.6077 28.5029 29.8766 28.5 29.1413V24.315C28.4953 24.1887 28.5333 24.0646 28.6078 23.9626C28.6823 23.8605 28.789 23.7865 28.9106 23.7525L33.9731 22.3125C34.0725 22.2846 34.1775 22.2846 34.2769 22.3125L37.2356 23.1562C37.1714 23.0356 37.094 22.9224 37.005 22.8187ZM18.375 27.375C18.375 27.6734 18.2565 27.9595 18.0455 28.1705C17.8345 28.3815 17.5484 28.5 17.25 28.5H13.875C13.5766 28.5 13.2905 28.3815 13.0795 28.1705C12.8685 27.9595 12.75 27.6734 12.75 27.375V26.25C12.75 25.9516 12.8685 25.6655 13.0795 25.4545C13.2905 25.2435 13.5766 25.125 13.875 25.125H14.4375L17.3906 25.5637C17.664 25.5982 17.9152 25.7317 18.0967 25.9391C18.2781 26.1465 18.3772 26.4132 18.375 26.6887V27.375ZM27.465 28.05C27.4387 28.179 27.368 28.2946 27.2652 28.3769C27.1625 28.4591 27.0341 28.5027 26.9025 28.5H21.0863C20.9547 28.5027 20.8263 28.4591 20.7235 28.3769C20.6207 28.2946 20.55 28.179 20.5238 28.05L20.1862 26.3625C20.1694 26.2798 20.1713 26.1944 20.1919 26.1126C20.2125 26.0308 20.2512 25.9546 20.3052 25.8898C20.3593 25.825 20.4272 25.7731 20.5039 25.7381C20.5807 25.7031 20.6644 25.6858 20.7487 25.6875H27.2512C27.3356 25.6858 27.4193 25.7031 27.4961 25.7381C27.5728 25.7731 27.6407 25.825 27.6948 25.8898C27.7488 25.9546 27.7875 26.0308 27.8081 26.1126C27.8287 26.1944 27.8306 26.2798 27.8137 26.3625L27.465 28.05ZM32.5275 21.8063C32.3692 21.9677 32.1801 22.0958 31.9714 22.1827C31.7627 22.2697 31.5386 22.3138 31.3125 22.3125H16.6875C16.4288 22.3127 16.1736 22.2535 15.9415 22.1394C15.7093 22.0253 15.5065 21.8593 15.3488 21.6544C15.1975 21.4403 15.1019 21.192 15.0705 20.9318C15.039 20.6716 15.0728 20.4077 15.1687 20.1638L17.0081 15.1744C17.0873 14.9589 17.2306 14.7728 17.4186 14.6411C17.6066 14.5094 17.8304 14.4383 18.06 14.4375H29.94C30.1696 14.4383 30.3934 14.5094 30.5814 14.6411C30.7694 14.7728 30.9127 14.9589 30.9919 15.1744L32.8256 20.1469C32.9348 20.4247 32.9637 20.7275 32.909 21.0209C32.8543 21.3144 32.7182 21.5865 32.5163 21.8063H32.5275Z" fill="#297AFF"/>
<path d="M37.7812 17.8125H36.6562C35.8796 17.8125 35.25 18.4421 35.25 19.2188C35.25 19.9954 35.8796 20.625 36.6562 20.625H37.7812C38.5579 20.625 39.1875 19.9954 39.1875 19.2188C39.1875 18.4421 38.5579 17.8125 37.7812 17.8125Z" fill="#297AFF"/>
<path d="M11.3438 17.8125H10.2188C9.4421 17.8125 8.8125 18.4421 8.8125 19.2188C8.8125 19.9954 9.4421 20.625 10.2188 20.625H11.3438C12.1204 20.625 12.75 19.9954 12.75 19.2188C12.75 18.4421 12.1204 17.8125 11.3438 17.8125Z" fill="#297AFF"/>
<path d="M34.125 23.4375L29.625 24.72V29.1187C29.6219 30.2046 29.901 31.2726 30.435 32.2181C30.6465 32.5897 30.8933 32.9401 31.1719 33.2644C31.4284 33.5801 31.7168 33.8685 32.0325 34.125C32.6526 34.629 33.3627 35.0107 34.125 35.25C34.5523 35.1059 34.9633 34.9173 35.3513 34.6875C36.3407 34.1375 37.1656 33.3337 37.7411 32.3588C38.3165 31.3839 38.6216 30.2733 38.625 29.1412V24.7425L34.125 23.4375ZM36.7744 28.3144L33.9619 31.1269C33.9096 31.1796 33.8474 31.2214 33.7788 31.25C33.7103 31.2786 33.6368 31.2933 33.5625 31.2933C33.4883 31.2933 33.4147 31.2786 33.3462 31.25C33.2777 31.2214 33.2154 31.1796 33.1632 31.1269L31.7569 29.7206C31.7045 29.6682 31.6629 29.6059 31.6345 29.5374C31.6061 29.4689 31.5915 29.3954 31.5915 29.3212C31.5915 29.2471 31.6061 29.1736 31.6345 29.1051C31.6629 29.0366 31.7045 28.9743 31.7569 28.9219C31.8093 28.8694 31.8716 28.8278 31.9401 28.7994C32.0087 28.7711 32.0821 28.7564 32.1563 28.7564C32.2304 28.7564 32.3039 28.7711 32.3724 28.7994C32.4409 28.8278 32.5032 28.8694 32.5557 28.9219L33.5625 29.9569L35.9757 27.5381C36.0816 27.4322 36.2252 27.3727 36.375 27.3727C36.5248 27.3727 36.6685 27.4322 36.7744 27.5381C36.8803 27.644 36.9398 27.7877 36.9398 27.9375C36.9398 28.0873 36.8803 28.231 36.7744 28.3369V28.3144Z" fill="#297AFF"/>
</svg>
