<svg width="40" height="40" viewBox="0 0 40 40" fill="none" xmlns="http://www.w3.org/2000/svg">
<rect width="40" height="40" rx="8" fill="#F7F8F9"/>
<path d="M27.0598 26.6699L24.9198 22.3999L22.7798 26.6699" stroke="#677985" stroke-width="1.5" stroke-linecap="round" stroke-linejoin="round"/>
<path d="M23.1699 25.9099H26.6899" stroke="#677985" stroke-width="1.5" stroke-linecap="round" stroke-linejoin="round"/>
<path d="M24.9198 30.0001C22.1198 30.0001 19.8398 27.73 19.8398 24.92C19.8398 22.12 22.1098 19.8401 24.9198 19.8401C27.7198 19.8401 29.9998 22.11 29.9998 24.92C29.9998 27.73 27.7298 30.0001 24.9198 30.0001Z" stroke="#677985" stroke-width="1.5" stroke-linecap="round" stroke-linejoin="round"/>
<path d="M13.02 10H16.94C19.01 10 20.01 11 19.96 13.02V16.94C20.01 19.01 19.01 20.01 16.94 19.96H13.02C11 20 10 19 10 16.93V13.01C10 11 11 10 13.02 10Z" stroke="#677985" stroke-width="1.5" stroke-linecap="round" stroke-linejoin="round"/>
<path d="M17.0097 13.8499H12.9497" stroke="#677985" stroke-width="1.5" stroke-linecap="round" stroke-linejoin="round"/>
<path d="M14.9697 13.1699V13.8499" stroke="#677985" stroke-width="1.5" stroke-linecap="round" stroke-linejoin="round"/>
<path d="M15.9899 13.8398C15.9899 15.5898 14.6199 17.0098 12.9399 17.0098" stroke="#677985" stroke-width="1.5" stroke-linecap="round" stroke-linejoin="round"/>
<path d="M17.0101 17.01C16.2801 17.01 15.6202 16.62 15.1602 16" stroke="#677985" stroke-width="1.5" stroke-linecap="round" stroke-linejoin="round"/>
<path d="M10 23C10 26.87 13.13 30 17 30L15.95 28.25" stroke="#677985" stroke-width="1.5" stroke-linecap="round" stroke-linejoin="round"/>
<path d="M30 17C30 13.13 26.87 10 23 10L24.05 11.75" stroke="#677985" stroke-width="1.5" stroke-linecap="round" stroke-linejoin="round"/>
</svg>
