<svg width="22" height="23" viewBox="0 0 22 23" fill="none" xmlns="http://www.w3.org/2000/svg">
<path d="M10.9714 0.818115C4.98911 0.818115 0.114258 5.6221 0.114258 11.5174C0.114258 17.4127 4.98911 22.2167 10.9714 22.2167C16.9537 22.2167 21.8285 17.4127 21.8285 11.5174C21.8285 5.6221 16.9537 0.818115 10.9714 0.818115ZM16.1611 9.05658L10.0051 15.1231C9.85312 15.2729 9.64683 15.3585 9.42969 15.3585C9.21254 15.3585 9.00626 15.2729 8.85426 15.1231L5.78169 12.0952C5.46683 11.7849 5.46683 11.2713 5.78169 10.9611C6.09654 10.6508 6.61769 10.6508 6.93254 10.9611L9.42969 13.4219L15.0103 7.92245C15.3251 7.61217 15.8463 7.61217 16.1611 7.92245C16.476 8.23273 16.476 8.7356 16.1611 9.05658Z" fill="#297AFF"/>
</svg>
