<svg width="260" height="214" viewBox="0 0 260 214" fill="none" xmlns="http://www.w3.org/2000/svg">
<path d="M143.556 185.354C192.45 185.354 232.089 145.786 232.089 96.8049C232.089 47.824 192.275 8.25577 143.556 8.25577C94.6623 8.25577 55.0234 47.824 55.0234 96.8049C55.0234 145.786 94.6623 185.354 143.556 185.354Z" fill="#F7F8F9" stroke="#CCD2D6" stroke-width="2" stroke-miterlimit="10"/>
<path d="M232.985 31.6133C232.985 35.2833 230.004 38.2599 226.325 38.2599C222.647 38.2599 219.666 35.2833 219.666 31.6133C219.666 27.9432 222.647 24.9666 226.325 24.9666C230.004 24.9666 232.985 27.9432 232.985 31.6133Z" fill="#F7F8F9" stroke="#CCD2D6"/>
<path d="M241.192 5.99001C241.192 8.40854 239.227 10.3707 236.802 10.3707C234.377 10.3707 232.413 8.40854 232.413 5.99001C232.413 3.57147 234.377 1.60934 236.802 1.60934C239.227 1.60934 241.192 3.57147 241.192 5.99001Z" fill="#F7F8F9" stroke="#CCD2D6"/>
<path d="M64.1284 33.7049C64.1284 36.1235 62.164 38.0856 59.739 38.0856C57.314 38.0856 55.3496 36.1235 55.3496 33.7049C55.3496 31.2864 57.314 29.3243 59.739 29.3243C62.164 29.3243 64.1284 31.2864 64.1284 33.7049Z" fill="#F7F8F9" stroke="#CCD2D6"/>
<path d="M38.4584 123.648C38.4584 128.377 34.6177 132.212 29.8781 132.212C25.1385 132.212 21.2979 128.377 21.2979 123.648C21.2979 118.919 25.1385 115.084 29.8781 115.084C34.6177 115.084 38.4584 118.919 38.4584 123.648Z" fill="#F7F8F9" stroke="#CCD2D6"/>
<path d="M143.509 135.763L140.415 135.721C140.104 135.717 139.694 135.354 139.725 134.854C139.743 134.564 139.844 134.313 139.977 134.145C140.109 133.979 140.248 133.921 140.366 133.922L143.46 133.965C143.77 133.969 144.177 134.328 144.151 134.824C144.113 135.207 144.005 135.45 143.892 135.585C143.788 135.709 143.665 135.765 143.509 135.763Z" fill="#B3BCC2" stroke="#CCD2D6"/>
<path d="M129.501 54.8989L167.013 131.786C168.267 134.45 167.159 137.547 164.491 138.799L88.818 174.473C86.1494 175.725 83.0465 174.619 81.7927 171.955L34.771 72.443C33.5172 69.7791 34.625 66.6817 37.2936 65.4302L92.0601 39.6868L129.501 54.8989Z" fill="white" stroke="#CCD2D6" stroke-width="2" stroke-miterlimit="10"/>
<mask id="path-8-inside-1_195_24540" fill="white">
<path d="M92.0615 39.6868L102.092 60.9975C103.547 63.929 107.295 65.221 110.231 63.768L129.502 54.8989"/>
</mask>
<path d="M92.0615 39.6868L102.092 60.9975C103.547 63.929 107.295 65.221 110.231 63.768L129.502 54.8989" fill="#CCD2D6"/>
<path d="M102.092 60.9975L101.186 61.4226L101.191 61.4321L101.195 61.4415L102.092 60.9975ZM110.231 63.768L109.813 62.8601L109.8 62.866L109.787 62.8722L110.231 63.768ZM91.1562 40.1119L101.186 61.4226L102.997 60.5724L92.9668 39.2617L91.1562 40.1119ZM101.195 61.4415C102.893 64.8602 107.237 66.3652 110.676 64.6638L109.787 62.8722C107.353 64.0769 104.201 62.9977 102.988 60.5535L101.195 61.4415ZM110.65 64.6759L129.921 55.8068L129.083 53.991L109.813 62.8601L110.65 64.6759Z" fill="#CCD2D6" mask="url(#path-8-inside-1_195_24540)"/>
<path d="M195.946 62.5624L197.031 148.076C197.027 151.02 194.702 153.35 191.754 153.346L108.067 153.403C105.118 153.399 102.784 151.078 102.788 148.135L102.766 38.1081C102.77 35.1649 105.095 32.8348 108.043 32.8387L168.578 32.8655L195.946 62.5624Z" fill="white" stroke="#CCD2D6" stroke-width="2" stroke-miterlimit="10"/>
<mask id="path-11-inside-2_195_24540" fill="white">
<path d="M168.578 32.8657L168.547 56.4112C168.611 59.6823 171.449 62.4463 174.726 62.382L195.945 62.5626"/>
</mask>
<path d="M168.578 32.8657L168.547 56.4112C168.611 59.6823 171.449 62.4463 174.726 62.382L195.945 62.5626" fill="#CCD2D6"/>
<path d="M168.547 56.4112L167.547 56.4106L167.547 56.4211L167.547 56.4316L168.547 56.4112ZM174.726 62.382L174.735 61.3823L174.721 61.3821L174.707 61.3824L174.726 62.382ZM167.578 32.8651L167.547 56.4106L169.547 56.4118L169.578 32.8663L167.578 32.8651ZM167.547 56.4316C167.622 60.247 170.908 63.4569 174.745 63.3816L174.707 61.3824C171.99 61.4357 169.601 59.1177 169.547 56.3908L167.547 56.4316ZM174.717 63.3818L195.936 63.5623L195.955 61.5628L174.735 61.3823L174.717 63.3818Z" fill="#CCD2D6" mask="url(#path-11-inside-2_195_24540)"/>
<path d="M248.61 100.489L213.614 178.644C212.449 181.28 209.194 182.435 206.591 181.128L130.772 146.227C128.131 145.065 126.974 141.815 128.138 139.179L174.316 39.3389C175.48 36.7023 178.736 35.5476 181.339 36.8549L236.394 62.2423L248.61 100.489Z" fill="white" stroke="#CCD2D6" stroke-width="2" stroke-miterlimit="10"/>
<mask id="path-14-inside-3_195_24540" fill="white">
<path d="M236.249 62.2044L226.382 83.6172C224.957 86.65 226.472 90.3043 229.51 91.7266L248.61 100.49"/>
</mask>
<path d="M236.249 62.2044L226.382 83.6172C224.957 86.65 226.472 90.3043 229.51 91.7266L248.61 100.49" fill="#CCD2D6"/>
<path d="M226.382 83.6172L227.287 84.0416L227.29 84.0349L226.382 83.6172ZM229.51 91.7266L229.086 92.6321L229.093 92.6352L229.51 91.7266ZM235.34 61.7867L225.473 83.1995L227.29 84.0349L237.157 62.6221L235.34 61.7867ZM225.476 83.1928C223.794 86.7749 225.598 90.9993 229.086 92.632L229.935 90.8211C227.347 89.6093 226.12 86.5251 227.287 84.0416L225.476 83.1928ZM229.093 92.6352L248.192 101.399L249.028 99.5812L229.928 90.8179L229.093 92.6352Z" fill="#CCD2D6" mask="url(#path-14-inside-3_195_24540)"/>
</svg>
