<svg width="33" height="32" viewBox="0 0 33 32" fill="none" xmlns="http://www.w3.org/2000/svg">
<circle cx="16.5" cy="16" r="16" fill="white"/>
<path fill-rule="evenodd" clip-rule="evenodd" d="M19.7928 10C20.6868 10 21.5468 10.3533 22.1795 10.9873C22.8128 11.62 23.1668 12.4733 23.1668 13.3667V18.6333C23.1668 20.4933 21.6535 22 19.7928 22H13.2068C11.3462 22 9.8335 20.4933 9.8335 18.6333V13.3667C9.8335 11.5067 11.3395 10 13.2068 10H19.7928ZM20.8535 14.36L20.9068 14.3067C21.0662 14.1133 21.0662 13.8333 20.8995 13.64C20.8068 13.5407 20.6795 13.48 20.5468 13.4667C20.4068 13.4593 20.2735 13.5067 20.1728 13.6L17.1668 16C16.7802 16.3207 16.2262 16.3207 15.8335 16L12.8335 13.6C12.6262 13.4467 12.3395 13.4667 12.1668 13.6467C11.9868 13.8267 11.9668 14.1133 12.1195 14.3133L12.2068 14.4L15.2402 16.7667C15.6135 17.06 16.0662 17.22 16.5402 17.22C17.0128 17.22 17.4735 17.06 17.8462 16.7667L20.8535 14.36Z" fill="#297AFF"/>
</svg>
