<svg width="28" height="21" viewBox="0 0 28 21" fill="none" xmlns="http://www.w3.org/2000/svg">
<rect y="0.195801" width="28" height="20" rx="2" fill="white"/>
<mask id="mask0_206_2116" style="mask-type:luminance" maskUnits="userSpaceOnUse" x="0" y="0" width="28" height="21">
<rect y="0.195801" width="28" height="20" rx="2" fill="white"/>
</mask>
<g mask="url(#mask0_206_2116)">
<path fill-rule="evenodd" clip-rule="evenodd" d="M28 0.195801H0V1.52913H28V0.195801ZM28 2.86247H0V4.1958H28V2.86247ZM0 5.52913H28V6.86247H0V5.52913ZM28 8.1958H0V9.52913H28V8.1958ZM0 10.8625H28V12.1958H0V10.8625ZM28 13.5291H0V14.8625H28V13.5291ZM0 16.1958H28V17.5291H0V16.1958ZM28 18.8625H0V20.1958H28V18.8625Z" fill="#D02F44"/>
<rect y="0.195801" width="12" height="9.33333" fill="#46467F"/>
<g filter="url(#filter0_d_206_2116)">
<path fill-rule="evenodd" clip-rule="evenodd" d="M2.66683 2.19572C2.66683 2.56391 2.36835 2.86239 2.00016 2.86239C1.63197 2.86239 1.3335 2.56391 1.3335 2.19572C1.3335 1.82753 1.63197 1.52905 2.00016 1.52905C2.36835 1.52905 2.66683 1.82753 2.66683 2.19572ZM5.3335 2.19572C5.3335 2.56391 5.03502 2.86239 4.66683 2.86239C4.29864 2.86239 4.00016 2.56391 4.00016 2.19572C4.00016 1.82753 4.29864 1.52905 4.66683 1.52905C5.03502 1.52905 5.3335 1.82753 5.3335 2.19572ZM7.3335 2.86239C7.70169 2.86239 8.00016 2.56391 8.00016 2.19572C8.00016 1.82753 7.70169 1.52905 7.3335 1.52905C6.96531 1.52905 6.66683 1.82753 6.66683 2.19572C6.66683 2.56391 6.96531 2.86239 7.3335 2.86239ZM10.6668 2.19572C10.6668 2.56391 10.3684 2.86239 10.0002 2.86239C9.63197 2.86239 9.3335 2.56391 9.3335 2.19572C9.3335 1.82753 9.63197 1.52905 10.0002 1.52905C10.3684 1.52905 10.6668 1.82753 10.6668 2.19572ZM3.3335 4.19572C3.70169 4.19572 4.00016 3.89724 4.00016 3.52905C4.00016 3.16086 3.70169 2.86239 3.3335 2.86239C2.96531 2.86239 2.66683 3.16086 2.66683 3.52905C2.66683 3.89724 2.96531 4.19572 3.3335 4.19572ZM6.66683 3.52905C6.66683 3.89724 6.36835 4.19572 6.00016 4.19572C5.63197 4.19572 5.3335 3.89724 5.3335 3.52905C5.3335 3.16086 5.63197 2.86239 6.00016 2.86239C6.36835 2.86239 6.66683 3.16086 6.66683 3.52905ZM8.66683 4.19572C9.03502 4.19572 9.3335 3.89724 9.3335 3.52905C9.3335 3.16086 9.03502 2.86239 8.66683 2.86239C8.29864 2.86239 8.00016 3.16086 8.00016 3.52905C8.00016 3.89724 8.29864 4.19572 8.66683 4.19572ZM10.6668 4.86239C10.6668 5.23058 10.3684 5.52905 10.0002 5.52905C9.63197 5.52905 9.3335 5.23058 9.3335 4.86239C9.3335 4.4942 9.63197 4.19572 10.0002 4.19572C10.3684 4.19572 10.6668 4.4942 10.6668 4.86239ZM7.3335 5.52905C7.70169 5.52905 8.00016 5.23058 8.00016 4.86239C8.00016 4.4942 7.70169 4.19572 7.3335 4.19572C6.96531 4.19572 6.66683 4.4942 6.66683 4.86239C6.66683 5.23058 6.96531 5.52905 7.3335 5.52905ZM5.3335 4.86239C5.3335 5.23058 5.03502 5.52905 4.66683 5.52905C4.29864 5.52905 4.00016 5.23058 4.00016 4.86239C4.00016 4.4942 4.29864 4.19572 4.66683 4.19572C5.03502 4.19572 5.3335 4.4942 5.3335 4.86239ZM2.00016 5.52905C2.36835 5.52905 2.66683 5.23058 2.66683 4.86239C2.66683 4.4942 2.36835 4.19572 2.00016 4.19572C1.63197 4.19572 1.3335 4.4942 1.3335 4.86239C1.3335 5.23058 1.63197 5.52905 2.00016 5.52905ZM4.00016 6.19572C4.00016 6.56391 3.70169 6.86239 3.3335 6.86239C2.96531 6.86239 2.66683 6.56391 2.66683 6.19572C2.66683 5.82753 2.96531 5.52905 3.3335 5.52905C3.70169 5.52905 4.00016 5.82753 4.00016 6.19572ZM6.00016 6.86239C6.36835 6.86239 6.66683 6.56391 6.66683 6.19572C6.66683 5.82753 6.36835 5.52905 6.00016 5.52905C5.63197 5.52905 5.3335 5.82753 5.3335 6.19572C5.3335 6.56391 5.63197 6.86239 6.00016 6.86239ZM9.3335 6.19572C9.3335 6.56391 9.03502 6.86239 8.66683 6.86239C8.29864 6.86239 8.00016 6.56391 8.00016 6.19572C8.00016 5.82753 8.29864 5.52905 8.66683 5.52905C9.03502 5.52905 9.3335 5.82753 9.3335 6.19572ZM10.0002 8.19572C10.3684 8.19572 10.6668 7.89724 10.6668 7.52905C10.6668 7.16086 10.3684 6.86239 10.0002 6.86239C9.63197 6.86239 9.3335 7.16086 9.3335 7.52905C9.3335 7.89724 9.63197 8.19572 10.0002 8.19572ZM8.00016 7.52905C8.00016 7.89724 7.70169 8.19572 7.3335 8.19572C6.96531 8.19572 6.66683 7.89724 6.66683 7.52905C6.66683 7.16086 6.96531 6.86239 7.3335 6.86239C7.70169 6.86239 8.00016 7.16086 8.00016 7.52905ZM4.66683 8.19572C5.03502 8.19572 5.3335 7.89724 5.3335 7.52905C5.3335 7.16086 5.03502 6.86239 4.66683 6.86239C4.29864 6.86239 4.00016 7.16086 4.00016 7.52905C4.00016 7.89724 4.29864 8.19572 4.66683 8.19572ZM2.66683 7.52905C2.66683 7.89724 2.36835 8.19572 2.00016 8.19572C1.63197 8.19572 1.3335 7.89724 1.3335 7.52905C1.3335 7.16086 1.63197 6.86239 2.00016 6.86239C2.36835 6.86239 2.66683 7.16086 2.66683 7.52905Z" fill="url(#paint0_linear_206_2116)"/>
</g>
</g>
<defs>
<filter id="filter0_d_206_2116" x="1.3335" y="1.52905" width="9.3335" height="7.66675" filterUnits="userSpaceOnUse" color-interpolation-filters="sRGB">
<feFlood flood-opacity="0" result="BackgroundImageFix"/>
<feColorMatrix in="SourceAlpha" type="matrix" values="0 0 0 0 0 0 0 0 0 0 0 0 0 0 0 0 0 0 127 0" result="hardAlpha"/>
<feOffset dy="1"/>
<feColorMatrix type="matrix" values="0 0 0 0 0 0 0 0 0 0 0 0 0 0 0 0 0 0 0.06 0"/>
<feBlend mode="normal" in2="BackgroundImageFix" result="effect1_dropShadow_206_2116"/>
<feBlend mode="normal" in="SourceGraphic" in2="effect1_dropShadow_206_2116" result="shape"/>
</filter>
<linearGradient id="paint0_linear_206_2116" x1="1.3335" y1="1.52905" x2="1.3335" y2="8.19572" gradientUnits="userSpaceOnUse">
<stop stop-color="white"/>
<stop offset="1" stop-color="#F0F0F0"/>
</linearGradient>
</defs>
</svg>
