<svg width="40" height="41" viewBox="0 0 40 41" fill="none" xmlns="http://www.w3.org/2000/svg">
<rect y="0.5" width="40" height="40" rx="12" fill="#1890FF" fill-opacity="0.16"/>
<path fill-rule="evenodd" clip-rule="evenodd" d="M20 10.5C14.4772 10.5 10 14.9772 10 20.5C10 26.0228 14.4772 30.5 20 30.5C25.5228 30.5 30 26.0228 30 20.5C30 17.8478 28.9464 15.3043 27.0711 13.4289C25.1957 11.5536 22.6522 10.5 20 10.5ZM21 24.5C21 25.0523 20.5523 25.5 20 25.5C19.4477 25.5 19 25.0523 19 24.5V19.5C19 18.9477 19.4477 18.5 20 18.5C20.5523 18.5 21 18.9477 21 19.5V24.5ZM19 16.5C19 17.0523 19.4477 17.5 20 17.5C20.5523 17.5 21 17.0523 21 16.5C21 15.9477 20.5523 15.5 20 15.5C19.4477 15.5 19 15.9477 19 16.5Z" fill="#297AFF"/>
</svg>
