<svg width="174" height="9" viewBox="0 0 174 9" fill="none" xmlns="http://www.w3.org/2000/svg">
<rect y="1" width="174" height="8" rx="4" fill="white"/>
<g clip-path="url(#clip0_165_19037)">
<rect y="0.898438" width="162" height="8" rx="4" fill="#297AFF"/>
<rect width="3.49777" height="18.6257" transform="matrix(0.926877 -0.375366 0.313383 0.949627 -6.98535 -2.78864)" fill="white" fill-opacity="0.25"/>
<rect width="3.49777" height="18.6257" transform="matrix(0.926877 -0.375366 0.313383 0.949627 2.09375 -2.78864)" fill="white" fill-opacity="0.25"/>
<rect width="3.49777" height="18.6257" transform="matrix(0.926877 -0.375366 0.313383 0.949627 11.1729 -2.78864)" fill="white" fill-opacity="0.25"/>
<rect width="3.49777" height="18.6257" transform="matrix(0.926877 -0.375366 0.313383 0.949627 20.252 -2.78864)" fill="white" fill-opacity="0.25"/>
<rect width="3.49777" height="18.6257" transform="matrix(0.926877 -0.375366 0.313383 0.949627 29.3311 -2.78864)" fill="white" fill-opacity="0.25"/>
<rect width="3.49777" height="18.6257" transform="matrix(0.926877 -0.375366 0.313383 0.949627 38.4097 -2.78864)" fill="white" fill-opacity="0.25"/>
<rect width="3.49777" height="18.6257" transform="matrix(0.926877 -0.375366 0.313383 0.949627 47.4888 -2.78864)" fill="white" fill-opacity="0.25"/>
<rect width="3.49777" height="18.6257" transform="matrix(0.926877 -0.375366 0.313383 0.949627 56.5679 -2.78864)" fill="white" fill-opacity="0.25"/>
<rect width="3.49777" height="18.6257" transform="matrix(0.926877 -0.375366 0.313383 0.949627 65.647 -2.78864)" fill="white" fill-opacity="0.25"/>
<rect width="3.49777" height="18.6257" transform="matrix(0.926877 -0.375366 0.313383 0.949627 74.7256 -2.78864)" fill="white" fill-opacity="0.25"/>
<rect width="3.49777" height="18.6257" transform="matrix(0.926877 -0.375366 0.313383 0.949627 83.8047 -2.78864)" fill="white" fill-opacity="0.25"/>
<rect width="3.49777" height="18.6257" transform="matrix(0.926877 -0.375366 0.313383 0.949627 92.8838 -2.78864)" fill="white" fill-opacity="0.25"/>
<rect width="3.49777" height="18.6257" transform="matrix(0.926877 -0.375366 0.313383 0.949627 101.963 -2.78864)" fill="white" fill-opacity="0.25"/>
<rect width="3.49777" height="18.6257" transform="matrix(0.926877 -0.375366 0.313383 0.949627 111.042 -2.78864)" fill="white" fill-opacity="0.25"/>
<rect width="3.49777" height="18.6257" transform="matrix(0.926877 -0.375366 0.313383 0.949627 120.121 -2.78864)" fill="white" fill-opacity="0.25"/>
<rect width="3.49777" height="18.6257" transform="matrix(0.926877 -0.375366 0.313383 0.949627 129.2 -2.78864)" fill="white" fill-opacity="0.25"/>
<rect width="3.49777" height="18.6257" transform="matrix(0.926877 -0.375366 0.313383 0.949627 138.279 -2.78864)" fill="white" fill-opacity="0.25"/>
<rect width="3.49777" height="18.6257" transform="matrix(0.926877 -0.375366 0.313383 0.949627 147.357 -2.78864)" fill="white" fill-opacity="0.25"/>
</g>
<defs>
<clipPath id="clip0_165_19037">
<rect y="0.898438" width="162" height="8" rx="4" fill="white"/>
</clipPath>
</defs>
</svg>
