<svg width="200" height="170" viewBox="0 0 200 170" fill="none" xmlns="http://www.w3.org/2000/svg">
<path d="M111.146 167.115C155.415 167.115 191.304 131.225 191.304 86.7984C191.304 42.3715 155.257 6.48218 111.146 6.48218C66.8776 6.48218 30.9883 42.3715 30.9883 86.7984C30.9883 131.225 66.8776 167.115 111.146 167.115Z" fill="#F7F8F9" stroke="#CCD2D6" stroke-width="2" stroke-miterlimit="10"/>
<path d="M186.087 34.1502C189.667 34.1502 192.569 31.248 192.569 27.668C192.569 24.088 189.667 21.1858 186.087 21.1858C182.507 21.1858 179.605 24.088 179.605 27.668C179.605 31.248 182.507 34.1502 186.087 34.1502Z" fill="#F7F8F9"/>
<path d="M195.573 8.85375C198.018 8.85375 200 6.87177 200 4.42688C200 1.98198 198.018 0 195.573 0C193.128 0 191.146 1.98198 191.146 4.42688C191.146 6.87177 193.128 8.85375 195.573 8.85375Z" fill="#F7F8F9"/>
<path d="M35.257 33.9922C37.7018 33.9922 39.6838 32.0102 39.6838 29.5653C39.6838 27.1204 37.7018 25.1384 35.257 25.1384C32.8121 25.1384 30.8301 27.1204 30.8301 29.5653C30.8301 32.0102 32.8121 33.9922 35.257 33.9922Z" fill="#F7F8F9"/>
<path d="M8.22134 119.367C12.7619 119.367 16.4427 115.687 16.4427 111.146C16.4427 106.606 12.7619 102.925 8.22134 102.925C3.68082 102.925 0 106.606 0 111.146C0 115.687 3.68082 119.367 8.22134 119.367Z" fill="#F7F8F9"/>
<path d="M134.388 44.1107L158.577 131.067C159.368 134.071 157.629 137.075 154.625 137.866L69.4075 160.474C66.4035 161.265 63.3995 159.526 62.609 156.522L32.8857 44.2688C32.0952 41.2648 33.8343 38.2609 36.8383 37.4704L98.4984 21.1858L134.388 44.1107Z" fill="white" stroke="#CCD2D6" stroke-width="2" stroke-miterlimit="10"/>
<path d="M133.123 99.1304L87.115 111.304L82.0557 112.569L66.7198 116.68C66.0874 116.838 65.6131 117.628 65.9293 118.419C66.0874 119.209 66.8779 119.684 67.5103 119.526L82.8463 115.415L87.9055 114.15L133.913 101.976C134.546 101.818 135.02 101.028 134.704 100.237C134.546 99.4466 133.755 98.9723 133.123 99.1304Z" fill="#CCD2D6"/>
<path d="M130.119 88.3794L113.044 92.8063L107.194 94.3873L64.0318 105.929C63.3994 106.087 62.9251 106.877 63.2413 107.668C63.3994 108.458 64.1899 108.933 64.8223 108.775L108.142 97.2332L113.992 95.6522L131.067 91.2253C131.7 91.0672 132.174 90.2767 131.858 89.4861C131.542 88.8537 130.751 88.2213 130.119 88.3794Z" fill="#CCD2D6"/>
<path d="M127.589 77.4703L123.162 78.5771L118.735 79.6838L61.0279 95.0197C60.3955 95.1778 59.9212 95.9684 60.2374 96.7589C60.3955 97.5494 61.186 98.0237 61.8184 97.8656L119.526 82.5296L124.427 81.2648L128.38 80.1581C129.012 80 129.486 79.2095 129.17 78.419C129.012 77.7865 128.38 77.3122 127.589 77.4703Z" fill="#CCD2D6"/>
<path d="M100.869 133.439L97.7073 134.229C97.0748 134.387 96.2843 133.913 96.1262 133.123C95.9681 132.332 96.2843 131.542 96.9167 131.383L100.079 130.593C100.711 130.435 101.502 130.909 101.66 131.7C101.818 132.648 101.502 133.281 100.869 133.439Z" fill="#CCD2D6"/>
<path d="M91.2255 135.968L73.0437 140.712C72.4113 140.87 71.6208 140.395 71.4627 139.605C71.3046 138.814 71.6208 138.024 72.2532 137.866L90.435 133.123C91.0674 132.964 91.8579 133.439 92.016 134.229C92.3322 135.02 92.016 135.81 91.2255 135.968Z" fill="#CCD2D6"/>
<path d="M125.375 66.5613L110.988 70.3558L107.51 71.3044L58.3399 84.2688C57.7075 84.4269 57.2332 85.2174 57.5494 86.008C57.7075 86.7985 58.498 87.2728 59.1304 87.1147L108.142 74.3084L111.621 73.3597L125.85 69.5653C126.64 69.4072 126.956 68.6167 126.798 67.668C126.798 67.0356 126.008 66.4032 125.375 66.5613Z" fill="#CCD2D6"/>
<path d="M91.3831 42.6877L50.5926 53.4387C49.644 53.7549 48.6953 53.1225 48.3791 52.1739C48.0629 51.2253 48.6953 50.2766 49.644 49.9604L90.4345 39.2095C91.3831 38.8932 92.3317 39.5257 92.6479 40.4743C92.9641 41.4229 92.3317 42.3715 91.3831 42.6877Z" fill="#CCD2D6"/>
<path d="M68.9327 59.1305L53.2806 63.2411C52.3319 63.5573 51.3833 62.9249 51.0671 61.9763C50.7509 61.0277 51.3833 60.0791 52.3319 59.7629L67.826 55.6522C68.7746 55.336 69.7232 55.9684 70.0394 56.917C70.3557 57.8656 69.7232 58.8143 68.9327 59.1305Z" fill="#CCD2D6"/>
<path d="M98.4985 21.1858L104.823 45.2174C105.771 48.5376 109.408 50.5929 112.728 49.6443L134.388 44.1107" fill="#CCD2D6"/>
<path d="M198.261 68.6166L183.715 157.787C183.241 160.791 180.237 162.846 177.233 162.213L90.593 147.036C87.589 146.561 85.5337 143.557 86.008 140.553L106.087 26.2451C106.561 23.2411 109.565 21.1858 112.569 21.8182L175.494 32.8854L198.261 68.6166Z" fill="white" stroke="#CCD2D6" stroke-width="2" stroke-miterlimit="10"/>
<path d="M174.071 118.103L127.272 109.881L122.213 108.933L106.561 106.245C105.929 106.087 105.138 106.719 105.138 107.51C104.98 108.3 105.454 109.091 106.087 109.249L121.739 111.937L126.798 112.885L173.597 121.107C174.229 121.265 175.019 120.632 175.019 119.842C175.178 119.051 174.861 118.261 174.071 118.103Z" fill="#CCD2D6"/>
<path d="M175.968 107.194L158.577 104.19L152.727 103.083L108.617 95.336C107.984 95.1779 107.194 95.8103 107.194 96.6009C107.036 97.3914 107.51 98.1819 108.142 98.34L152.253 106.087L158.103 107.194L175.494 110.198C176.127 110.356 176.917 109.723 176.917 108.933C177.075 108.142 176.601 107.352 175.968 107.194Z" fill="#CCD2D6"/>
<path d="M178.182 96.1265L173.597 95.336L169.012 94.5455L110.198 84.2688C109.565 84.1107 108.775 84.7431 108.775 85.5336C108.617 86.3241 109.091 87.1146 109.723 87.2727L168.538 97.5494L173.597 98.498L177.549 99.1304C178.182 99.2885 178.972 98.6561 178.972 97.8656C179.289 97.0751 178.972 96.2846 178.182 96.1265Z" fill="#CCD2D6"/>
<path d="M130.435 135.81L127.273 135.336C126.641 135.178 126.166 134.387 126.325 133.597C126.483 132.806 127.115 132.174 127.748 132.332L130.91 132.806C131.542 132.965 132.016 133.755 131.858 134.546C131.7 135.494 131.068 135.81 130.435 135.81Z" fill="#CCD2D6"/>
<path d="M120.79 134.071L102.292 130.909C101.66 130.751 101.186 129.96 101.344 129.17C101.502 128.379 102.134 127.747 102.767 127.905L121.265 131.067C121.897 131.225 122.371 132.016 122.213 132.806C122.055 133.755 121.423 134.229 120.79 134.071Z" fill="#CCD2D6"/>
<path d="M180.711 85.3755L166.008 82.8459L162.371 82.2135L112.253 73.3597C111.62 73.2016 110.83 73.834 110.83 74.6245C110.672 75.4151 111.146 76.2056 111.779 76.3637L161.897 85.2174L165.534 85.8498L180.079 88.3795C180.869 88.5376 181.502 87.9052 181.66 87.1146C181.818 86.3241 181.344 85.5336 180.711 85.3755Z" fill="#CCD2D6"/>
<path d="M160 49.4863L118.419 42.2135C117.471 42.0554 116.838 41.1068 116.996 40.1582C117.154 39.2096 118.103 38.5772 119.052 38.7353L160.633 46.008C161.581 46.1661 162.214 47.1147 162.056 48.0633C161.898 48.8538 160.949 49.6444 160 49.4863Z" fill="#CCD2D6"/>
<path d="M132.648 54.8616L116.68 52.0158C115.731 51.8577 115.099 50.9091 115.257 49.9604C115.415 49.0118 116.364 48.3794 117.312 48.5375L133.123 51.3834C134.071 51.5415 134.704 52.4901 134.546 53.4387C134.388 54.3873 133.439 55.0197 132.648 54.8616Z" fill="#CCD2D6"/>
<path d="M175.336 32.8855L171.067 57.3914C170.435 60.8697 172.965 64.1898 176.443 64.8223L198.261 68.6167" fill="#CCD2D6"/>
<path d="M138.656 149.407C158.128 149.407 173.913 133.622 173.913 114.15C173.913 94.6784 158.128 78.8933 138.656 78.8933C119.184 78.8933 103.399 94.6784 103.399 114.15C103.399 133.622 119.184 149.407 138.656 149.407Z" fill="white"/>
<path d="M189.788 168.601C188.42 168.601 187.051 168.054 185.956 166.822L163.102 143.968L162.281 144.515C154.891 149.989 146.269 152.863 137.511 152.863C126.973 152.863 116.436 148.621 108.635 141.231C100.424 133.43 95.9077 122.893 95.9077 111.397C95.9077 88.5427 114.52 69.9308 137.374 69.9308C152.975 69.9308 166.66 78.1419 174.05 92.1008C181.303 105.923 180.346 122.071 171.45 135.072L170.903 135.894L193.894 158.885C196.22 161.211 195.673 163.538 195.262 164.769C194.168 166.959 191.978 168.601 189.788 168.601ZM137.374 81.2895C120.678 81.2895 107.266 94.8379 107.266 111.397C107.266 130.283 122.731 141.641 137.784 141.641C146.954 141.641 155.302 137.536 161.186 130.146C168.439 121.114 169.671 108.934 164.608 98.396C159.407 87.8584 149.006 81.2895 137.374 81.2895Z" fill="#CCD2D6" stroke="#99A6AD" stroke-width="2" stroke-miterlimit="10"/>
<path d="M135.336 119.842C135.177 119.21 135.177 118.577 135.177 117.787C135.177 115.099 136.284 112.727 139.13 110.672L141.502 108.933C142.925 107.826 143.557 106.561 143.557 104.98C143.557 102.767 141.976 100.553 138.656 100.553C135.177 100.553 133.596 103.399 133.596 106.087C133.596 106.719 133.596 107.194 133.755 107.668L127.43 107.51C127.272 106.878 127.114 106.087 127.114 105.296C127.114 99.921 131.067 94.8617 138.498 94.8617C146.087 94.8617 150.197 99.7629 150.197 104.664C150.197 108.617 148.142 111.304 145.296 113.36L143.241 114.783C141.502 116.047 140.553 117.628 140.553 119.526V119.842H135.336ZM138.023 123.004C140.237 123.004 141.976 124.743 141.976 126.957C141.976 129.17 140.237 130.909 138.023 130.909C135.81 130.909 134.071 129.17 134.071 126.957C134.229 124.901 135.81 123.004 138.023 123.004Z" fill="#B3BCC2"/>
</svg>
