<svg width="40" height="40" viewBox="0 0 40 40" fill="none" xmlns="http://www.w3.org/2000/svg">
<rect width="40" height="40" rx="8" fill="#F7F8F9"/>
<path d="M9.51172 20C9.51172 14.208 14.208 9.51172 20 9.51172C25.792 9.51172 30.4883 14.208 30.4883 20C30.4883 25.792 25.792 30.4883 20 30.4883C14.208 30.4883 9.51172 25.792 9.51172 20ZM11.2695 20C11.2695 24.8205 15.1795 28.7305 20 28.7305C24.8205 28.7305 28.7305 24.8205 28.7305 20C28.7305 15.1795 24.8205 11.2695 20 11.2695C15.1795 11.2695 11.2695 15.1795 11.2695 20Z" fill="#677985" stroke="#677985" stroke-width="0.0234375"/>
<path d="M22.6079 15.4315L22.6079 15.4315C23.3368 16.0692 23.7383 16.9262 23.7359 17.8437V17.8438C23.7359 19.193 22.8465 20.4078 21.4677 20.9383L21.4677 20.9383C21.2532 21.0211 21.0687 21.1666 20.9382 21.3559C20.8076 21.5451 20.7372 21.7693 20.7359 21.9992V21.9992V22.5312C20.7359 22.6279 20.6568 22.707 20.5602 22.707H19.4352C19.3385 22.707 19.2594 22.6279 19.2594 22.5312V22.0273C19.2594 21.4882 19.4181 20.9562 19.7237 20.5129C20.0247 20.0789 20.4447 19.7476 20.9393 19.5586L20.9394 19.5586C21.7421 19.2502 22.2617 18.5785 22.2617 17.8438C22.2617 16.8018 21.2442 15.957 20 15.957C18.7558 15.957 17.7383 16.8018 17.7383 17.8438V18.0219C17.7383 18.1185 17.6592 18.1977 17.5625 18.1977H16.4375C16.3408 18.1977 16.2617 18.1185 16.2617 18.0219V17.8438C16.2617 16.9262 16.6632 16.0692 17.3921 15.4315C18.093 14.8194 19.0183 14.4805 20 14.4805C20.9817 14.4805 21.907 14.817 22.6079 15.4315ZM21.4719 20.9492C22.8547 20.4172 23.7477 19.1984 23.7477 17.8438L19.7141 20.5062C19.407 20.9516 19.2477 21.4859 19.2477 22.0273V22.5312C19.2477 22.6344 19.332 22.7188 19.4352 22.7188H20.5602C20.6633 22.7188 20.7477 22.6344 20.7477 22.5312V21.9992C20.7489 21.7717 20.8186 21.5498 20.9478 21.3625C21.077 21.1752 21.2596 21.0312 21.4719 20.9492ZM19.3454 25.8109C19.1718 25.6373 19.0742 25.4018 19.0742 25.1562C19.0742 24.9107 19.1718 24.6752 19.3454 24.5016C19.519 24.328 19.7545 24.2305 20 24.2305C20.2455 24.2305 20.481 24.328 20.6546 24.5016C20.8282 24.6752 20.9258 24.9107 20.9258 25.1562C20.9258 25.4018 20.8282 25.6373 20.6546 25.8109C20.481 25.9845 20.2455 26.082 20 26.082C19.7545 26.082 19.519 25.9845 19.3454 25.8109Z" fill="#677985" stroke="#677985" stroke-width="0.0234375"/>
</svg>
