<svg width="40" height="41" viewBox="0 0 40 41" fill="none" xmlns="http://www.w3.org/2000/svg">
<rect y="0.5" width="40" height="40" rx="12" fill="#54D62C" fill-opacity="0.16"/>
<path fill-rule="evenodd" clip-rule="evenodd" d="M10 20.5C10 14.9772 14.4772 10.5 20 10.5C22.6522 10.5 25.1957 11.5536 27.0711 13.4289C28.9464 15.3043 30 17.8478 30 20.5C30 26.0228 25.5228 30.5 20 30.5C14.4772 30.5 10 26.0228 10 20.5ZM19.73 24.11L24.3 18.11V18.08C24.5179 17.7942 24.5668 17.4138 24.4283 17.0822C24.2897 16.7505 23.9848 16.518 23.6283 16.4722C23.2718 16.4264 22.9179 16.5742 22.7 16.86L18.92 21.86L17.29 19.78C17.0703 19.4978 16.7167 19.3542 16.3624 19.4033C16.0081 19.4525 15.707 19.6869 15.5724 20.0183C15.4378 20.3497 15.4903 20.7278 15.71 21.01L18.15 24.12C18.3408 24.3615 18.6322 24.5017 18.94 24.5C19.2495 24.4993 19.5412 24.3552 19.73 24.11Z" fill="#05CC6C"/>
</svg>
