<svg width="28" height="21" viewBox="0 0 28 21" fill="none" xmlns="http://www.w3.org/2000/svg">
<rect x="0.25" y="1.08911" width="27.5" height="19.5" rx="1.75" fill="white" stroke="#F5F5F5" stroke-width="0.5"/>
<mask id="mask0_206_2072" style="mask-type:luminance" maskUnits="userSpaceOnUse" x="0" y="0" width="28" height="21">
<rect x="0.25" y="1.08911" width="27.5" height="19.5" rx="1.75" fill="white" stroke="white" stroke-width="0.5"/>
</mask>
<g mask="url(#mask0_206_2072)">
<path fill-rule="evenodd" clip-rule="evenodd" d="M0 7.50578H28V0.839111H0V7.50578Z" fill="#04AAC8"/>
<path fill-rule="evenodd" clip-rule="evenodd" d="M0 20.839H28V14.1724H0V20.839Z" fill="#23C840"/>
<path fill-rule="evenodd" clip-rule="evenodd" d="M4.6665 6.17236C5.07778 6.17236 5.46007 6.04822 5.77793 5.83536C5.7411 5.8378 5.70395 5.83903 5.6665 5.83903C4.74603 5.83903 3.99984 5.09284 3.99984 4.17236C3.99984 3.25189 4.74603 2.5057 5.6665 2.5057C5.70395 2.5057 5.7411 2.50693 5.77793 2.50936C5.46007 2.29651 5.07778 2.17236 4.6665 2.17236C3.56193 2.17236 2.6665 3.06779 2.6665 4.17236C2.6665 5.27693 3.56193 6.17236 4.6665 6.17236ZM7.99984 5.5057C7.99984 5.87389 7.70136 6.17236 7.33317 6.17236C6.96498 6.17236 6.6665 5.87389 6.6665 5.5057C6.6665 5.13751 6.96498 4.83903 7.33317 4.83903C7.70136 4.83903 7.99984 5.13751 7.99984 5.5057ZM9.99984 3.5057C10.368 3.5057 10.6665 3.20722 10.6665 2.83903C10.6665 2.47084 10.368 2.17236 9.99984 2.17236C9.63165 2.17236 9.33317 2.47084 9.33317 2.83903C9.33317 3.20722 9.63165 3.5057 9.99984 3.5057ZM13.3332 2.83903C13.3332 3.20722 13.0347 3.5057 12.6665 3.5057C12.2983 3.5057 11.9998 3.20722 11.9998 2.83903C11.9998 2.47084 12.2983 2.17236 12.6665 2.17236C13.0347 2.17236 13.3332 2.47084 13.3332 2.83903ZM12.6665 6.17236C13.0347 6.17236 13.3332 5.87389 13.3332 5.5057C13.3332 5.13751 13.0347 4.83903 12.6665 4.83903C12.2983 4.83903 11.9998 5.13751 11.9998 5.5057C11.9998 5.87389 12.2983 6.17236 12.6665 6.17236ZM10.6665 5.5057C10.6665 5.87389 10.368 6.17236 9.99984 6.17236C9.63165 6.17236 9.33317 5.87389 9.33317 5.5057C9.33317 5.13751 9.63165 4.83903 9.99984 4.83903C10.368 4.83903 10.6665 5.13751 10.6665 5.5057Z" fill="white"/>
</g>
</svg>
