<svg width="33" height="32" viewBox="0 0 33 32" fill="none" xmlns="http://www.w3.org/2000/svg">
<circle cx="16.5" cy="16" r="16" fill="white"/>
<path fill-rule="evenodd" clip-rule="evenodd" d="M11.5693 15.1666H13.191C13.2652 13.8783 13.5102 12.6916 13.8885 11.7349C13.2793 12.1082 12.7572 12.6076 12.3571 13.1995C11.9571 13.7914 11.6885 14.4622 11.5693 15.1666ZM16.5002 9.33325C14.7321 9.33325 13.0364 10.0356 11.7861 11.2859C10.5359 12.5361 9.8335 14.2318 9.8335 15.9999C9.8335 17.768 10.5359 19.4637 11.7861 20.714C13.0364 21.9642 14.7321 22.6666 16.5002 22.6666C18.2683 22.6666 19.964 21.9642 21.2142 20.714C22.4645 19.4637 23.1668 17.768 23.1668 15.9999C23.1668 14.2318 22.4645 12.5361 21.2142 11.2859C19.964 10.0356 18.2683 9.33325 16.5002 9.33325ZM16.5002 10.9999C16.4368 10.9999 16.3068 11.0266 16.1127 11.2183C15.9143 11.4133 15.6985 11.7374 15.4985 12.2033C15.1743 12.9591 14.9377 13.9883 14.8602 15.1666H18.1402C18.0627 13.9883 17.826 12.9591 17.5018 12.2033C17.3018 11.7366 17.0852 11.4133 16.8877 11.2183C16.6935 11.0266 16.5635 10.9999 16.5002 10.9999ZM19.8093 15.1666C19.7352 13.8783 19.4902 12.6916 19.1118 11.7349C19.721 12.1082 20.2432 12.6076 20.6432 13.1995C21.0432 13.7914 21.3118 14.4622 21.431 15.1666H19.8093ZM18.1402 16.8333H14.8602C14.9377 18.0116 15.1743 19.0408 15.4985 19.7966C15.6985 20.2633 15.9152 20.5866 16.1127 20.7816C16.3068 20.9733 16.4368 20.9999 16.5002 20.9999C16.5635 20.9999 16.6935 20.9733 16.8877 20.7816C17.086 20.5866 17.3027 20.2624 17.5018 19.7966C17.826 19.0408 18.0627 18.0116 18.1402 16.8333ZM19.1118 20.2649C19.4902 19.3091 19.7352 18.1216 19.8093 16.8333H21.431C21.3118 17.5377 21.0432 18.2084 20.6432 18.8003C20.2432 19.3923 19.721 19.8917 19.1118 20.2649ZM13.8885 20.2649C13.5102 19.3083 13.2652 18.1216 13.1918 16.8333H11.5693C11.6885 17.5377 11.9571 18.2084 12.3571 18.8003C12.7572 19.3923 13.2793 19.8917 13.8885 20.2649Z" fill="#297AFF"/>
</svg>
